<svg width="1440" height="518" viewBox="0 0 1440 518" fill="none" xmlns="http://www.w3.org/2000/svg">
    <g opacity=".1" clip-path="url(#yuno4eafpa)">
        <path d="M1020.32 338.876c-1.74-1.792-13.76 14.385-33.748 15.754-19.562 1.319-25.859-13.041-45.719-10.079-4.007.597-11.498 4.753-27.003 11.995-15.182 7.093-25.062 15.157-27.003 16.501-12.494 8.711-33.375 20.532-70.183 34.444 53.384-4.977 106.793-9.979 160.177-14.957 36.929-40.517 44.919-52.165 43.479-53.658z" fill="#1467E1"/>
        <path d="M968.702 405.401c-1.119-11.175-38.799-19.462-69.735-17.994-24.24 1.145-29.616 7.591-51.741 11.249-46.217 7.616-61.722-14.086-105.723-15.753-49.676-1.867-60.328 24.638-105.723 31.482-32.677 4.928-82.303-.472-150.719-53.981-46.491 21.005-92.981 41.986-139.471 62.991 80.238 11.996 160.476 23.991 240.689 35.987 116.797 18.143 206.219 6.745 265.451-6.744 6.919-1.568 118.963-27.501 116.972-47.237z" fill="#3A95EE"/>
        <path d="M907.802 388.527c-4.056.797-9.134-.771-11.697-4.753-2.29-3.559-2.091-8.288-.373-11.324 1.418-2.489 3.136-2.663 3.658-5.127.573-2.738-1.319-3.833-.722-6.57.399-1.867 1.917-4.182 4.381-4.754 2.538-.597 5.301.846 6.321 2.837 1.294 2.514-1.045 4.331-.099 7.043 1.269 3.584 6.421 2.589 8.038 5.849 2.414 4.803-1.642 15.256-9.507 16.799z" fill="#113BC1"/>
        <path d="M906.209 411.299a.732.732 0 0 1-.746-.746v-31.135c0-.423.323-.746.746-.746s.747.323.747.746v31.135a.749.749 0 0 1-.747.746z" fill="#0A377A"/>
        <path d="M881.446 397.163c-5.226.274-9.382-4.057-10.876-7.84-3.31-8.337 3.883-19.935 10.279-19.935 6.371 0 13.414 11.573 10.278 19.935-1.294 3.385-4.753 7.566-9.681 7.84z" fill="#FFFEFF"/>
        <path d="M880.55 425.386a.733.733 0 0 1-.746-.747v-39.795c0-.423.323-.747.746-.747s.747.324.747.747v39.795a.766.766 0 0 1-.747.747z" fill="#0A377A"/>
        <path d="M720.597 405.65c-5.002.249-8.934-3.883-10.378-7.491-3.161-7.964 3.708-19.014 9.806-19.014 6.073 0 12.792 11.025 9.806 19.014-1.245 3.26-4.555 7.242-9.234 7.491z" fill="#D0F7F7"/>
        <path d="M719.776 427.651a.733.733 0 0 1-.746-.747V400c0-.423.323-.746.746-.746s.747.323.747.746v26.904a.734.734 0 0 1-.747.747z" fill="#0A377A"/>
        <path d="M746.456 389.572c-4.804.249-8.587-3.733-9.955-7.192-3.037-7.641 3.559-18.243 9.407-18.243 5.824 0 12.27 10.577 9.408 18.243-1.195 3.111-4.356 6.944-8.86 7.192z" fill="#113BC1"/>
        <path d="M746.082 419.836a.733.733 0 0 1-.746-.747v-47.212c0-.423.323-.746.746-.746s.747.323.747.746v47.212a.749.749 0 0 1-.747.747z" fill="#0A377A"/>
        <path d="M857.529 419.014c-3.733.2-6.67-2.887-7.74-5.599-2.364-5.948 2.763-14.186 7.317-14.186 4.53 0 9.557 8.238 7.317 14.186-.921 2.439-3.385 5.4-6.894 5.599z" fill="#FFFEFF"/>
        <path d="M856.882 439.323a.734.734 0 0 1-.747-.747v-28.322c0-.423.324-.747.747-.747s.747.324.747.747v28.322a.75.75 0 0 1-.747.747z" fill="#0A377A"/>
        <path d="M1439.98 113.12h-54.19v258.384h54.19V113.12z" fill="#3A95EE"/>
        <path d="M1439.98 130.865h-45.45v4.953h45.45v-4.953zM1439.98 142.115h-45.45v4.952h45.45v-4.952zM1439.98 153.364h-45.45v4.952h45.45v-4.952zM1439.98 164.613h-45.45v4.953h45.45v-4.953zM1439.98 175.862h-45.45v4.953h45.45v-4.953zM1439.98 187.111h-45.45v4.953h45.45v-4.953zM1439.98 198.361h-45.45v4.952h45.45v-4.952zM1439.98 209.61h-45.45v4.952h45.45v-4.952zM1439.98 220.859h-45.45v4.953h45.45v-4.953zM1439.98 232.108h-45.45v4.953h45.45v-4.953zM1439.98 243.357h-45.45v4.953h45.45v-4.953zM1439.98 254.607h-45.45v4.952h45.45v-4.952zM1439.98 265.856h-45.45v4.953h45.45v-4.953zM1439.98 277.105h-45.45v4.953h45.45v-4.953zM1439.98 288.354h-45.45v4.953h45.45v-4.953zM1439.98 299.604h-45.45v4.952h45.45v-4.952zM1439.98 310.853h-45.45v4.952h45.45v-4.952z" fill="#012A94"/>
        <path d="M1360.71 46.397h-42.98V343.58h42.98V46.397z" fill="#FFFEFF"/>
        <path d="M1385.82 46.397h-25.11V349.13h25.11V46.397z" fill="#1266E3"/>
        <path d="M1327.86 57.073h-3.02V72.33h3.02V57.073zM1335.37 57.073h-3.01V72.33h3.01V57.073zM1342.86 57.073h-3.01V72.33h3.01V57.073zM1350.35 57.073h-3.01V72.33h3.01V57.073zM1327.86 83.33h-3.02v15.256h3.02V83.33zM1335.37 83.33h-3.01v15.256h3.01V83.33zM1342.86 83.33h-3.01v15.256h3.01V83.33zM1350.35 83.33h-3.01v15.256h3.01V83.33zM1327.86 109.561h-3.02v15.256h3.02v-15.256zM1335.37 109.561h-3.01v15.256h3.01v-15.256zM1342.86 109.561h-3.01v15.256h3.01v-15.256zM1350.35 109.561h-3.01v15.256h3.01v-15.256zM1327.86 135.818h-3.02v15.256h3.02v-15.256zM1335.37 135.818h-3.01v15.256h3.01v-15.256zM1342.86 135.818h-3.01v15.256h3.01v-15.256zM1350.35 135.818h-3.01v15.256h3.01v-15.256zM1327.86 162.074h-3.02v15.256h3.02v-15.256zM1335.37 162.074h-3.01v15.256h3.01v-15.256zM1342.86 162.074h-3.01v15.256h3.01v-15.256zM1350.35 162.074h-3.01v15.256h3.01v-15.256zM1327.86 188.306h-3.02v15.256h3.02v-15.256zM1335.37 188.306h-3.01v15.256h3.01v-15.256zM1342.86 188.306h-3.01v15.256h3.01v-15.256zM1350.35 188.306h-3.01v15.256h3.01v-15.256zM1327.86 214.562h-3.02v15.257h3.02v-15.257zM1335.37 214.562h-3.01v15.257h3.01v-15.257zM1342.86 214.562h-3.01v15.257h3.01v-15.257zM1350.35 214.562h-3.01v15.257h3.01v-15.257zM1327.86 240.819h-3.02v15.256h3.02v-15.256zM1335.37 240.819h-3.01v15.256h3.01v-15.256zM1342.86 240.819h-3.01v15.256h3.01v-15.256zM1350.35 240.819h-3.01v15.256h3.01v-15.256zM1327.86 267.075h-3.02v15.257h3.02v-15.257zM1335.37 267.075h-3.01v15.257h3.01v-15.257zM1342.86 267.075h-3.01v15.257h3.01v-15.257zM1350.35 267.075h-3.01v15.257h3.01v-15.257zM1327.86 293.307h-3.02v15.256h3.02v-15.256zM1335.37 293.307h-3.01v15.256h3.01v-15.256zM1342.86 293.307h-3.01v15.256h3.01v-15.256zM1350.35 293.307h-3.01v15.256h3.01v-15.256z" fill="#3A93FB"/>
        <path d="M1053.87 197.763h-39.9v135.613h39.9V197.763z" fill="#FFFEFF"/>
        <path d="M1066.64 197.763h-12.77v131.631h12.77V197.763z" fill="#1266E3"/>
        <path d="M1023.23 204.806h-1.52v124.563h1.52V204.806zM1034.48 204.806h-1.52v124.563h1.52V204.806zM1045.73 204.806h-1.52v124.563h1.52V204.806z" fill="#3A93FB"/>
        <path d="M436.629 121.632h-68.292v292.977h68.292V121.632z" fill="#002A9A"/>
        <path d="M498.923 438.8h-62.294V121.632l62.294 69.387V438.8z" fill="#FEFFFF"/>
        <path d="M456.489 195.175h-10.378v6.271h10.378v-6.271zM473.786 195.175h-10.378v6.271h10.378v-6.271zM491.108 195.175H480.73v6.271h10.378v-6.271zM456.489 210.157h-10.378v6.272h10.378v-6.272zM473.786 210.157h-10.378v6.272h10.378v-6.272zM491.108 210.157H480.73v6.272h10.378v-6.272zM456.489 225.165h-10.378v6.271h10.378v-6.271zM473.786 225.165h-10.378v6.271h10.378v-6.271zM491.108 225.165H480.73v6.271h10.378v-6.271zM456.489 240.172h-10.378v6.272h10.378v-6.272zM473.786 240.172h-10.378v6.272h10.378v-6.272zM491.108 240.172H480.73v6.272h10.378v-6.272zM456.489 255.154h-10.378v6.272h10.378v-6.272zM473.786 255.154h-10.378v6.272h10.378v-6.272zM491.108 255.154H480.73v6.272h10.378v-6.272zM456.489 270.161h-10.378v6.272h10.378v-6.272zM473.786 270.161h-10.378v6.272h10.378v-6.272zM491.108 270.161H480.73v6.272h10.378v-6.272zM456.489 285.169h-10.378v6.271h10.378v-6.271zM473.786 285.169h-10.378v6.271h10.378v-6.271zM491.108 285.169H480.73v6.271h10.378v-6.271zM456.489 300.151h-10.378v6.272h10.378v-6.272zM473.786 300.151h-10.378v6.272h10.378v-6.272zM491.108 300.151H480.73v6.272h10.378v-6.272zM456.489 315.158h-10.378v6.272h10.378v-6.272zM473.786 315.158h-10.378v6.272h10.378v-6.272zM491.108 315.158H480.73v6.272h10.378v-6.272zM456.489 330.166h-10.378v6.271h10.378v-6.271zM473.786 330.166h-10.378v6.271h10.378v-6.271zM491.108 330.166H480.73v6.271h10.378v-6.271zM456.489 345.173h-10.378v6.272h10.378v-6.272zM473.786 345.173h-10.378v6.272h10.378v-6.272zM491.108 345.173H480.73v6.272h10.378v-6.272zM456.489 360.155h-10.378v6.272h10.378v-6.272zM473.786 360.155h-10.378v6.272h10.378v-6.272zM491.108 360.155H480.73v6.272h10.378v-6.272zM456.489 375.162h-10.378v6.272h10.378v-6.272zM473.786 375.162h-10.378v6.272h10.378v-6.272zM491.108 375.162H480.73v6.272h10.378v-6.272zM456.489 393.903h-10.378v6.272h10.378v-6.272zM473.786 393.903h-10.378v6.272h10.378v-6.272zM491.108 393.903H480.73v6.272h10.378v-6.272z" fill="#157DB7"/>
        <path d="M345.416 90.323V29.1h-67.744v27.202h-19.985v34.021H232.75v283.471h117.917V90.324h-5.251z" fill="#1266E3"/>
        <path d="M365.401 90.323V56.302h-19.985V29.1h-28.048v27.202h-19.985v34.021H272.42v286.358h117.918V90.323h-24.937z" fill="#3A93FB"/>
        <path d="M303.779 334.197h-8.039V112.498h8.039v221.699zm-6.794-1.244h5.55V113.742h-5.55v219.211zM323.614 334.197h-8.038V112.498h8.038v221.699zm-6.794-1.244h5.55V113.742h-5.55v219.211zM346.287 334.197h-8.039V112.498h8.039v221.699zm-6.794-1.244h5.55V113.742h-5.55v219.211zM368.96 334.197h-8.039V112.498h8.039v221.699zm-6.795-1.244h5.55V113.742h-5.55v219.211z" fill="#fff"/>
        <path d="M202.984 29.1h-55.848v371.896h55.848V29.1z" fill="#1266E3"/>
        <path d="M147.136 400.996h-31.184V29l31.184.1v371.896z" fill="#002A9A"/>
        <path d="M164.582 46.397h-5.002V56.45h5.002V46.397zM173.368 46.397h-5.003V56.45h5.003V46.397zM182.128 46.397h-5.002V56.45h5.002V46.397zM190.888 46.397h-5.002V56.45h5.002V46.397zM164.582 63.544h-5.002V73.6h5.002V63.544zM173.368 63.544h-5.003V73.6h5.003V63.544zM182.128 63.544h-5.002V73.6h5.002V63.544zM190.888 63.544h-5.002V73.6h5.002V63.544zM164.582 80.692h-5.002v10.054h5.002V80.692zM173.368 80.692h-5.003v10.054h5.003V80.692zM182.128 80.692h-5.002v10.054h5.002V80.692zM190.888 80.692h-5.002v10.054h5.002V80.692zM164.582 97.864h-5.002v10.055h5.002V97.864zM173.368 97.864h-5.003v10.055h5.003V97.864zM182.128 97.864h-5.002v10.055h5.002V97.864zM190.888 97.864h-5.002v10.055h5.002V97.864zM164.582 115.012h-5.002v10.054h5.002v-10.054zM173.368 115.012h-5.003v10.054h5.003v-10.054zM182.128 115.012h-5.002v10.054h5.002v-10.054zM190.888 115.012h-5.002v10.054h5.002v-10.054zM164.582 132.159h-5.002v10.055h5.002v-10.055zM173.368 132.159h-5.003v10.055h5.003v-10.055zM182.128 132.159h-5.002v10.055h5.002v-10.055zM190.888 132.159h-5.002v10.055h5.002v-10.055zM164.582 149.332h-5.002v10.054h5.002v-10.054zM173.368 149.332h-5.003v10.054h5.003v-10.054zM182.128 149.332h-5.002v10.054h5.002v-10.054zM190.888 149.332h-5.002v10.054h5.002v-10.054zM164.582 166.479h-5.002v10.055h5.002v-10.055zM173.368 166.479h-5.003v10.055h5.003v-10.055zM182.128 166.479h-5.002v10.055h5.002v-10.055zM190.888 166.479h-5.002v10.055h5.002v-10.055zM164.582 183.627h-5.002v10.055h5.002v-10.055zM173.368 183.627h-5.003v10.055h5.003v-10.055zM182.128 183.627h-5.002v10.055h5.002v-10.055zM190.888 183.627h-5.002v10.055h5.002v-10.055zM164.582 200.775h-5.002v10.054h5.002v-10.054zM173.368 200.775h-5.003v10.054h5.003v-10.054zM182.128 200.775h-5.002v10.054h5.002v-10.054zM190.888 200.775h-5.002v10.054h5.002v-10.054zM164.582 217.947h-5.002v10.055h5.002v-10.055zM173.368 217.947h-5.003v10.055h5.003v-10.055zM182.128 217.947h-5.002v10.055h5.002v-10.055zM190.888 217.947h-5.002v10.055h5.002v-10.055zM164.582 235.095h-5.002v10.054h5.002v-10.054zM173.368 235.095h-5.003v10.054h5.003v-10.054zM182.128 235.095h-5.002v10.054h5.002v-10.054zM190.888 235.095h-5.002v10.054h5.002v-10.054z" fill="#FEFFFF"/>
        <path d="M164.582 148.76h-5.002v10.054h5.002V148.76zM173.368 148.76h-5.003v10.054h5.003V148.76zM182.128 148.76h-5.002v10.054h5.002V148.76zM190.888 148.76h-5.002v10.054h5.002V148.76zM164.582 165.907h-5.002v10.055h5.002v-10.055zM173.368 165.907h-5.003v10.055h5.003v-10.055zM182.128 165.907h-5.002v10.055h5.002v-10.055zM190.888 165.907h-5.002v10.055h5.002v-10.055zM164.582 183.08h-5.002v10.054h5.002V183.08zM173.368 183.08h-5.003v10.054h5.003V183.08zM182.128 183.08h-5.002v10.054h5.002V183.08zM190.888 183.08h-5.002v10.054h5.002V183.08zM164.582 200.227h-5.002v10.055h5.002v-10.055zM173.368 200.227h-5.003v10.055h5.003v-10.055zM182.128 200.227h-5.002v10.055h5.002v-10.055zM190.888 200.227h-5.002v10.055h5.002v-10.055zM164.582 217.375h-5.002v10.054h5.002v-10.054zM173.368 217.375h-5.003v10.054h5.003v-10.054zM182.128 217.375h-5.002v10.054h5.002v-10.054zM190.888 217.375h-5.002v10.054h5.002v-10.054zM164.582 234.547h-5.002v10.055h5.002v-10.055zM173.368 234.547h-5.003v10.055h5.003v-10.055zM182.128 234.547h-5.002v10.055h5.002v-10.055zM190.888 234.547h-5.002v10.055h5.002v-10.055zM164.582 251.695h-5.002v10.054h5.002v-10.054zM173.368 251.695h-5.003v10.054h5.003v-10.054zM182.128 251.695h-5.002v10.054h5.002v-10.054zM190.888 251.695h-5.002v10.054h5.002v-10.054zM164.582 268.843h-5.002v10.054h5.002v-10.054zM173.368 268.843h-5.003v10.054h5.003v-10.054zM182.128 268.843h-5.002v10.054h5.002v-10.054zM190.888 268.843h-5.002v10.054h5.002v-10.054zM164.582 286.015h-5.002v10.055h5.002v-10.055zM173.368 286.015h-5.003v10.055h5.003v-10.055zM182.128 286.015h-5.002v10.055h5.002v-10.055zM190.888 286.015h-5.002v10.055h5.002v-10.055zM164.582 303.163h-5.002v10.054h5.002v-10.054zM173.368 303.163h-5.003v10.054h5.003v-10.054zM182.128 303.163h-5.002v10.054h5.002v-10.054zM190.888 303.163h-5.002v10.054h5.002v-10.054zM164.582 320.31h-5.002v10.055h5.002V320.31zM173.368 320.31h-5.003v10.055h5.003V320.31zM182.128 320.31h-5.002v10.055h5.002V320.31zM190.888 320.31h-5.002v10.055h5.002V320.31zM164.582 337.458h-5.002v10.054h5.002v-10.054zM173.368 337.458h-5.003v10.054h5.003v-10.054zM182.128 337.458h-5.002v10.054h5.002v-10.054zM190.888 337.458h-5.002v10.054h5.002v-10.054z" fill="#FEFFFF"/>
        <path d="M110.153 327.378c12.668-5.127 17.994-4.081 20.408-1.692 5.326 5.251-2.763 17.819 3.409 23.817 4.281 4.157 10.005-.099 16.999 5.102 5.326 3.957 3.832 7.79 8.511 10.204 6.72 3.485 12.792-2.936 18.716 0 2.688 1.344 5.898 4.903 6.794 15.306-1.344 3.211-8.238 18.691-25.51 25.51-15.679 6.172-33.947 2.837-47.61-8.512l-1.717-69.735z" fill="#3A95EE"/>
        <path d="M121.327 174.219H75.982v240.366h45.345V174.219z" fill="#5EC0FF"/>
        <path d="M75.982 174.219H0v240.366h75.982V174.219z" fill="#3891ED"/>
        <path d="M75.982 174.219H0v8.96h75.982v-8.96z" fill="#012A94"/>
        <path d="M121.327 174.219H75.982v8.96h45.345v-8.96z" fill="#1266E3"/>
        <path d="M96.39 190.098h-4.355v197.06h4.355v-197.06zM107.739 190.098h-4.356v197.06h4.356v-197.06z" fill="#3A95EE"/>
        <path d="M813.478 470.631a661.178 661.178 0 0 1 47.237-33.747s29.965-19.462 59.879-34.569c71.652-36.187 144.746-4.057 261.796-37.406 70.26-20.01 109.06-47.212 152.96-31.483 9.06 3.235 28.32 15.181 56.24 15.754 20.39.398 37.21-5.003 48.39-9.731v95.245c-151.89 30.462-325.93 49.451-517.544 42.582a2199.305 2199.305 0 0 1-108.958-6.645z" fill="#5BBDFE"/>
        <path d="M560.843 396.342a202.837 202.837 0 0 1 48.382-3.385c12.991.672 32.802 1.842 56.246 11.249 10.926 4.381 26.829 12.245 43.305 26.431-17.571 5.003-38.128 9.582-61.299 12.369a398.767 398.767 0 0 1-90.591.548l3.957-47.212z" fill="#1467E1"/>
        <path d="M574.78 294.427h-46.39v155.697h46.39V294.427z" fill="#3A95EE"/>
        <path d="M498.923 420.284h29.467V294.427l-29.467.373v125.484z" fill="#1469DE"/>
        <path d="M540.485 320.758h-2.215v6.52h2.215v-6.52zM548.997 320.758h-2.215v6.52h2.215v-6.52zM557.484 320.758h-2.215v6.52h2.215v-6.52zM565.995 320.758h-2.215v6.52h2.215v-6.52zM540.485 334.919h-2.215v6.521h2.215v-6.521zM548.997 334.919h-2.215v6.521h2.215v-6.521zM557.484 334.919h-2.215v6.521h2.215v-6.521zM565.995 334.919h-2.215v6.521h2.215v-6.521zM540.485 349.105h-2.215v6.52h2.215v-6.52zM548.997 349.105h-2.215v6.52h2.215v-6.52zM557.484 349.105h-2.215v6.52h2.215v-6.52zM565.995 349.105h-2.215v6.52h2.215v-6.52zM540.485 363.266h-2.215v6.52h2.215v-6.52zM548.997 363.266h-2.215v6.52h2.215v-6.52zM557.484 363.266h-2.215v6.52h2.215v-6.52zM565.995 363.266h-2.215v6.52h2.215v-6.52zM540.485 377.452h-2.215v6.52h2.215v-6.52zM548.997 377.452h-2.215v6.52h2.215v-6.52zM557.484 377.452h-2.215v6.52h2.215v-6.52zM565.995 377.452h-2.215v6.52h2.215v-6.52zM540.485 391.613h-2.215v6.521h2.215v-6.521zM548.997 391.613h-2.215v6.521h2.215v-6.521zM557.484 391.613h-2.215v6.521h2.215v-6.521zM565.995 391.613h-2.215v6.521h2.215v-6.521zM540.485 405.799h-2.215v6.52h2.215v-6.52zM548.997 405.799h-2.215v6.52h2.215v-6.52zM557.484 405.799h-2.215v6.52h2.215v-6.52zM565.995 405.799h-2.215v6.52h2.215v-6.52z" fill="#FEFFFF"/>
        <path d="M241.087 320.584c14.634-4.43 19.985-2.588 22.1 0 4.181 5.102-2.588 14.883 1.692 18.715 4.306 3.833 13.141-4.305 20.408 0 5.326 3.161 3.41 9.209 8.512 11.897 6.545 3.459 13.34-4.704 20.408-3.41 5.798 1.07 12.419 8.686 16.998 35.714l-102.015 6.794c3.958-23.245 7.94-46.49 11.897-69.71z" fill="#87D5FB"/>
        <path d="M0 380.688a3485.886 3485.886 0 0 1 181.381 13.464 3495.75 3495.75 0 0 1 220.455 29.243C267.941 454.778 134.045 486.161.149 517.57.1 491.637.075 465.679.025 439.746 0 420.06 0 400.374 0 380.688z" fill="#1669E1"/>
        <path d="M0 461.249c8.512-8.835 22.897-21.926 43.504-32.678 13.613-7.093 30.263-12.966 95.991-23.991 42.533-7.143 39.621-4.381 60.004-9.01 55.799-12.668 59.631-29.317 95.992-35.987 43.827-8.064 81.781 8.138 126.006 27.003 47.959 20.457 48.631 32.279 87.008 44.997 39.173 12.991 71.104 11.473 113.985 9.009 107.714-6.197 129.864-35.141 182.999-21.005 22.971 6.097 56.57 21.553 91.213 66.823a7456.688 7456.688 0 0 1-283.445 22.499C409.402 521.178 205.049 525.011.174 520.457c-.05-19.761-.1-39.472-.174-59.208z" fill="#5EC0FF"/>
        <path d="M1317.73 215.906h-24.37V343.58h24.37V215.906z" fill="#1266E3"/>
        <path d="M1071.12 329.369H926.991v70.134h144.129v-70.134z" fill="#AFE5FF"/>
        <path d="M1071.09 332.878h-38.4v66.649h38.4v-66.649z" fill="#3A93FB"/>
        <path d="M1032.71 329.369H926.991v7.989h105.719v-7.989z" fill="#1469E8"/>
        <path d="M1071.09 329.369h-38.4v7.989h38.4v-7.989z" fill="#113BC1"/>
        <path d="M1262.43 300.723c7.59-6.097 15.73-5.027 18.71-.049 1.99 3.31 1.4 7.789 1 9.78.5-.298 5.15-3.011 10.03 0 5.37 3.335 6 10.553 6.02 11.001 3.24-8.362 10.48-11.399 15.06-8.562 4.58 2.838 5 10.628 5.02 11.001 4.98-5.152 11.85-6.098 17.05-2.439 6.03 4.206 6.92 12.493 7.02 13.439 1.17-6.247 6-10.453 11.03-9.781 5.35.697 9.43 6.67 9.03 13.44 4.55.423 8.29 4.529 9.03 9.78.83 5.774-2.16 11.673-7.01 13.44 5.3-.597 10.18 2.464 12.04 7.342 2.54 6.595-.57 16.251-8.04 19.561-33.77 3.261-67.57 6.521-101.34 9.781-1.52-32.603-3.09-65.181-4.65-97.734z" fill="#87D5FB"/>
        <path d="M1261.85 183.453h-70.5v233.521h70.5V183.453z" fill="#3A93FB"/>
        <path d="M1293.36 183.453h-31.51v217.443h31.51V183.453z" fill="#002A9A"/>
        <path d="M1205.46 208.564h-2.49v5.998h2.49v-5.998zM1212.97 208.564h-2.48v5.998h2.48v-5.998zM1220.47 208.564h-2.49v5.998h2.49v-5.998zM1227.96 208.564h-2.49v5.998h2.49v-5.998zM1235.47 208.564h-2.49v5.998h2.49v-5.998zM1242.96 208.564h-2.48v5.998h2.48v-5.998zM1250.46 208.564h-2.49v5.998h2.49v-5.998zM1205.46 223.572h-2.49v5.998h2.49v-5.998zM1212.97 223.572h-2.48v5.998h2.48v-5.998zM1220.47 223.572h-2.49v5.998h2.49v-5.998zM1227.96 223.572h-2.49v5.998h2.49v-5.998zM1235.47 223.572h-2.49v5.998h2.49v-5.998zM1242.96 223.572h-2.48v5.998h2.48v-5.998zM1250.46 223.572h-2.49v5.998h2.49v-5.998zM1205.46 238.579h-2.49v5.998h2.49v-5.998zM1212.97 238.579h-2.48v5.998h2.48v-5.998zM1220.47 238.579h-2.49v5.998h2.49v-5.998zM1227.96 238.579h-2.49v5.998h2.49v-5.998zM1235.47 238.579h-2.49v5.998h2.49v-5.998zM1242.96 238.579h-2.48v5.998h2.48v-5.998zM1250.46 238.579h-2.49v5.998h2.49v-5.998zM1205.46 253.562h-2.49v5.997h2.49v-5.997zM1212.97 253.562h-2.48v5.997h2.48v-5.997zM1220.47 253.562h-2.49v5.997h2.49v-5.997zM1227.96 253.562h-2.49v5.997h2.49v-5.997zM1235.47 253.562h-2.49v5.997h2.49v-5.997zM1242.96 253.562h-2.48v5.997h2.48v-5.997zM1250.46 253.562h-2.49v5.997h2.49v-5.997zM1205.46 268.569h-2.49v5.998h2.49v-5.998zM1212.97 268.569h-2.48v5.998h2.48v-5.998zM1220.47 268.569h-2.49v5.998h2.49v-5.998zM1227.96 268.569h-2.49v5.998h2.49v-5.998zM1235.47 268.569h-2.49v5.998h2.49v-5.998zM1242.96 268.569h-2.48v5.998h2.48v-5.998zM1250.46 268.569h-2.49v5.998h2.49v-5.998zM1205.46 283.576h-2.49v5.998h2.49v-5.998zM1212.97 283.576h-2.48v5.998h2.48v-5.998zM1220.47 283.576h-2.49v5.998h2.49v-5.998zM1227.96 283.576h-2.49v5.998h2.49v-5.998zM1235.47 283.576h-2.49v5.998h2.49v-5.998zM1242.96 283.576h-2.48v5.998h2.48v-5.998zM1250.46 283.576h-2.49v5.998h2.49v-5.998zM1205.46 298.558h-2.49v5.998h2.49v-5.998zM1212.97 298.558h-2.48v5.998h2.48v-5.998zM1220.47 298.558h-2.49v5.998h2.49v-5.998zM1227.96 298.558h-2.49v5.998h2.49v-5.998zM1235.47 298.558h-2.49v5.998h2.49v-5.998zM1242.96 298.558h-2.48v5.998h2.48v-5.998zM1250.46 298.558h-2.49v5.998h2.49v-5.998zM1205.46 313.566h-2.49v5.998h2.49v-5.998zM1212.97 313.566h-2.48v5.998h2.48v-5.998zM1220.47 313.566h-2.49v5.998h2.49v-5.998zM1227.96 313.566h-2.49v5.998h2.49v-5.998zM1235.47 313.566h-2.49v5.998h2.49v-5.998zM1242.96 313.566h-2.48v5.998h2.48v-5.998zM1250.46 313.566h-2.49v5.998h2.49v-5.998zM1205.46 328.573h-2.49v5.998h2.49v-5.998zM1212.97 328.573h-2.48v5.998h2.48v-5.998zM1220.47 328.573h-2.49v5.998h2.49v-5.998zM1227.96 328.573h-2.49v5.998h2.49v-5.998zM1235.47 328.573h-2.49v5.998h2.49v-5.998zM1242.96 328.573h-2.48v5.998h2.48v-5.998zM1250.46 328.573h-2.49v5.998h2.49v-5.998zM1205.46 343.555h-2.49v5.998h2.49v-5.998zM1212.97 343.555h-2.48v5.998h2.48v-5.998zM1220.47 343.555h-2.49v5.998h2.49v-5.998zM1227.96 343.555h-2.49v5.998h2.49v-5.998zM1235.47 343.555h-2.49v5.998h2.49v-5.998zM1242.96 343.555h-2.48v5.998h2.48v-5.998zM1250.46 343.555h-2.49v5.998h2.49v-5.998zM1205.46 358.562h-2.49v5.998h2.49v-5.998zM1212.97 358.562h-2.48v5.998h2.48v-5.998zM1220.47 358.562h-2.49v5.998h2.49v-5.998zM1227.96 358.562h-2.49v5.998h2.49v-5.998zM1235.47 358.562h-2.49v5.998h2.49v-5.998zM1242.96 358.562h-2.48v5.998h2.48v-5.998zM1250.46 358.562h-2.49v5.998h2.49v-5.998zM1205.46 373.57h-2.49v5.998h2.49v-5.998zM1212.97 373.57h-2.48v5.998h2.48v-5.998zM1220.47 373.57h-2.49v5.998h2.49v-5.998zM1227.96 373.57h-2.49v5.998h2.49v-5.998zM1235.47 373.57h-2.49v5.998h2.49v-5.998zM1242.96 373.57h-2.48v5.998h2.48v-5.998zM1250.46 373.57h-2.49v5.998h2.49v-5.998z" fill="#FEFFFF"/>
        <path d="M220.554 246.792H163.86v154.204h56.694V246.792z" fill="#01289D"/>
        <path d="M246.064 246.792H189.37v154.204h56.694V246.792z" fill="#FEFFFF"/>
        <path d="M208.011 258.514h-9.183v3.908h9.183v-3.908zM223.018 258.514h-9.183v3.908h9.183v-3.908zM238.05 258.514h-9.183v3.908h9.183v-3.908zM208.011 273.521h-9.183v3.908h9.183v-3.908zM223.018 273.521h-9.183v3.908h9.183v-3.908zM238.05 273.521h-9.183v3.908h9.183v-3.908zM208.011 288.504h-9.183v3.907h9.183v-3.907zM223.018 288.504h-9.183v3.907h9.183v-3.907zM238.05 288.504h-9.183v3.907h9.183v-3.907zM208.011 303.511h-9.183v3.907h9.183v-3.907zM223.018 303.511h-9.183v3.907h9.183v-3.907zM238.05 303.511h-9.183v3.907h9.183v-3.907zM208.011 318.518h-9.183v3.908h9.183v-3.908zM223.018 318.518h-9.183v3.908h9.183v-3.908zM238.05 318.518h-9.183v3.908h9.183v-3.908zM208.011 333.501h-9.183v3.907h9.183v-3.907zM223.018 333.501h-9.183v3.907h9.183v-3.907zM238.05 333.501h-9.183v3.907h9.183v-3.907zM208.011 348.508h-9.183v3.907h9.183v-3.907zM223.018 348.508h-9.183v3.907h9.183v-3.907zM238.05 348.508h-9.183v3.907h9.183v-3.907zM208.011 363.515h-9.183v3.908h9.183v-3.908zM223.018 363.515h-9.183v3.908h9.183v-3.908zM238.05 363.515h-9.183v3.908h9.183v-3.908zM208.011 378.498h-9.183v3.907h9.183v-3.907zM223.018 378.498h-9.183v3.907h9.183v-3.907zM238.05 378.498h-9.183v3.907h9.183v-3.907z" fill="#3A93FB"/>
        <path d="M984.382 345.148c-2.041.075-3.31 5.849-5.625 16.301-1.692 7.666-1.941 12.419-2.24 19.114-.448 9.98.473 12.469 2.24 14.062 1.817 1.617 4.878 2.638 7.317 1.692 5.45-2.115 5.55-13.215 5.625-19.686.124-14.808-3.808-31.632-7.317-31.483z" fill="#113BC1"/>
        <path d="M984.855 412.071a.733.733 0 0 1-.747-.747v-42.01c0-.423.323-.747.747-.747.423 0 .746.324.746.747v42.01a.733.733 0 0 1-.746.747z" fill="#0A377A"/>
        <path d="M953.62 394.201c-1.119-.821-4.181-3.583-1.642-22.174.946-6.894 3.036-22.25 5.749-22.175 1.443.049 2.613 7.142 4.928 21.353 2.737 16.924 2.613 20.956 0 22.996-2.414 1.892-6.546 1.792-9.035 0z" fill="#146AE3"/>
        <path d="M957.105 412.071a.734.734 0 0 1-.747-.747V378.97c0-.423.324-.746.747-.746s.746.323.746.746v32.354a.733.733 0 0 1-.746.747z" fill="#0A377A"/>
        <path d="M1006.31 351.345c-2.24.05-3.54 10.353-4.51 17.994-1.64 12.941-2.784 22.15 1.7 24.738 2.61 1.518 6.74.523 9-1.692 1.82-1.767 3.07-4.928-.57-22.499-2.46-12.02-3.81-18.591-5.62-18.541z" fill="#146AE3"/>
        <path d="M1007.73 412.071a.732.732 0 0 1-.75-.747v-33.573c0-.423.32-.747.75-.747.42 0 .74.324.74.747v33.573a.73.73 0 0 1-.74.747z" fill="#0A377A"/>
        <path d="M1075.45 459.283c-1.27-30.985-2.57-61.97-3.84-92.956-3.61.523-6.32 1.643-7.99 2.489-2.98 1.518-6.27 3.161-7.74 6.745-1.04 2.513-.77 4.927-.49 6.247a35.425 35.425 0 0 0-7.74-.996c-5.18-.075-10.18-.199-13.74 3.011-4.73 4.256-3.91 11.673-3.76 12.867-6.32.374-11.7 3.783-13.74 8.885-1.39 3.435-.87 6.645-.5 8.238-1.26.224-3.53.796-5.74 2.489-.63.473-4.98 3.982-5.01 10.005-.02 6.296 4.76 9.905 5.25 10.253-5.94.324-9.93 5.65-9.15 10.329.79 4.828 6.54 8.636 12.36 6.744-5.47 5.028-7.74 8.786-6.74 11.25 2.41 6.221 25.29 4.355 68.57-5.6z" fill="#113BC1"/>
        <path d="M1166.19 299.23h-95V455.4h95V299.23z" fill="#146AE3"/>
        <path d="M1159.89 445.395h31.46V299.23h-31.46v146.165z" fill="#002A9A"/>
        <path d="M1131.17 323.048h-8.39v13.986h8.39v-13.986zM1146.7 323.048h-8.39v13.986h8.39v-13.986zM1109.42 321.181h-23.62v8.586h23.62v-8.586zM1131.17 350.997h-8.39v13.986h8.39v-13.986zM1146.7 350.997h-8.39v13.986h8.39v-13.986zM1109.42 349.155h-23.62v8.586h23.62v-8.586zM1109.42 377.104h-23.62v8.586h23.62v-8.586zM1131.17 378.97h-8.39v13.987h8.39V378.97zM1146.7 378.97h-8.39v13.987h8.39V378.97zM1109.42 405.052h-23.62v8.587h23.62v-8.587zM1131.17 406.919h-8.39v13.987h8.39v-13.987zM1146.7 406.919h-8.39v13.987h8.39v-13.987z" fill="#87D5FB"/>
        <path d="M1101.48 320.31h-1.74v99.252h1.74V320.31z" fill="#146AE3"/>
        <path d="M121.352 358.115c-3.409 2.936-8.636 8.212-12.319 16.251-3.036 6.595-7.068 15.406-2.812 22.971 2.687 4.754 8.287 8.338 14.559 8.412 5.998.05 11.772-3.086 14.559-7.839 4.53-7.715-.149-17.397-3.932-25.211a56.949 56.949 0 0 0-10.055-14.584z" fill="#FEFFFF"/>
        <path d="M120.805 437.108a.616.616 0 0 1-.622-.622v-57.142c0-.349.273-.623.622-.623.348 0 .622.274.622.623v57.142a.616.616 0 0 1-.622.622z" fill="#0A377A"/>
        <path d="M161.063 368c-4.231 3.634-10.702 10.179-15.281 20.134-3.758 8.188-8.785 19.114-3.484 28.472 3.335 5.873 10.278 10.328 18.068 10.428 7.417.074 14.609-3.833 18.069-9.732 5.599-9.556-.199-21.577-4.853-31.258A71.295 71.295 0 0 0 161.063 368z" fill="#113BC1"/>
        <path d="M160.366 487.784a.732.732 0 0 1-.746-.746v-85.539c0-.423.323-.747.746-.747s.747.324.747.747v85.539a.733.733 0 0 1-.747.746z" fill="#0A377A"/>
        <path d="M30.54 365c-1.518 1.742-3.833 4.853-5.475 9.607-1.344 3.907-3.136 9.109-1.245 13.563 1.195 2.813 3.684 4.928 6.471 4.953 2.663.025 5.226-1.817 6.47-4.629 2.017-4.554-.074-10.279-1.741-14.883-1.444-4.007-3.21-6.844-4.48-8.611z" fill="#113BC1"/>
        <path d="M30.291 412.062a.733.733 0 0 1-.747-.746v-33.773c0-.423.324-.746.747-.746s.747.323.747.746v33.773a.748.748 0 0 1-.747.746z" fill="#0A377A"/>
        <path d="M1191.37 226.558h-62.42v72.672h62.42v-72.672z" fill="#AAE9FA"/>
        <path d="M1177.88 226.558h-48.93v72.647h48.93v-72.647z" fill="#FFFEFF"/>
        <path d="M1171.49 233.577h-37.88v1.742h37.88v-1.742zM1171.49 241.068h-37.88v1.742h37.88v-1.742zM1171.49 248.559h-37.88v1.742h37.88v-1.742zM1171.49 256.075h-37.88v1.742h37.88v-1.742zM1171.49 263.566h-37.88v1.743h37.88v-1.743zM1171.49 271.057h-37.88v1.743h37.88v-1.743zM1171.49 278.573h-37.88v1.743h37.88v-1.743zM1171.49 286.065h-37.88v1.742h37.88v-1.742zM1171.49 293.556h-37.88v1.742h37.88v-1.742z" fill="#23A0E0"/>
        <path d="M1047.42 432.404c9.31-.398 18.62-.896 27.93-1.319 66.17-3.111 128.69-21.627 143.03-25.659 41.04-11.573 108.13-23.345 221.57-22.847v185.488c-157.09-.224-314.18-.473-471.272-.697-33.574-11.05-55.824-38.576-56.247-67.495-.348-25.461 16.277-47.984 34.395-58.561 14.709-8.562 24.091-5.675 100.594-8.91z" fill="#3A95EE"/>
        <path d="M528.664 488.526a300.521 300.521 0 0 0-29.243-21.379c-15.68-10.079-33.773-21.702-59.631-29.243-17.845-5.226-42.882-12.892-70.88-4.504-17.82 5.35-14.062 8.835-28.123 12.369-35.291 8.885-51.244-15.032-76.505-4.505-17.173 7.168-12.319 19.263-32.628 28.123-19.96 8.711-31.856.174-49.501 9.009-13.913 6.944-21.603 19.786-25.883 29.243l327.397-2.239c14.982-5.625 29.989-11.25 44.997-16.874z" fill="#1969E2"/>
        <path d="M0 520.631c108.411.05 216.821.124 325.232.174-1.045-12.942-4.455-30.139-16.6-36.759-10.453-5.675-17.372 1.916-33.748.747-28.023-2.016-32.553-26.058-65.255-35.988-17.82-5.426-18.243 1.17-44.997-2.24-21.13-2.713-71.204-24.489-73.493-25.51-18.417-8.063-47.113-14.036-91.114-2.837C0 452.364 0 486.51 0 520.631z" fill="#3A95EE"/>
        <path d="M244.695 471.776c-.796-1.219-3.608-5.525-3.708-11.672-.124-7.491 3.883-11.598 3.012-17.994-.473-3.484-1.842-3.708-1.867-6.819 0-4.256 2.613-5.152 3.26-10.204.548-4.43-1.169-6.122-1.393-11.672-.274-6.969 1.941-16.526 5.574-17.994 2.887-1.17 6.173 2.962 7.417 8.263 1.667 7.093-1.195 12.692.921 19.935 1.045 3.583 2.414 4.554 2.563 8.262.125 3.609-1.12 4.455-1.169 7.79-.075 5.849 3.658 7.417 4.405 13.614.871 7.367-3.236 15.156-3.709 16.052-4.056 7.516-10.9 9.209-15.306 2.439z" fill="#113BC1"/>
        <path d="M251.49 505.275a.734.734 0 0 1-.747-.747v-85.962c0-.423.324-.746.747-.746s.746.323.746.746v85.962a.748.748 0 0 1-.746.747z" fill="#0A377A"/>
        <path d="M176.653 494.648c-2.066-.149-6.546-.498-10.951-3.509-2.29-1.568-4.953-3.36-5.799-6.446-1.618-5.898 5.401-9.233 3.858-14.808-1.145-4.181-5.675-4.505-6.446-9.656-.1-.722-.349-2.887.647-5.152 2.14-4.903 7.217-3.932 9.656-7.74 3.186-4.978-3.335-10.154-.647-17.397 1.867-5.027 7.417-8.885 10.304-7.74 2.787 1.12 3.111 6.919 3.21 9.01.324 6.172-2.09 7.964-.647 10.95 1.568 3.236 4.828 1.966 9.01 5.799 2.886 2.638 6.197 7.69 5.151 12.245-1.045 4.554-5.749 5.749-5.151 8.362.572 2.514 5.027 1.817 7.74 5.152 2.837 3.509 2.239 9.606 0 13.514-4.729 8.437-17.372 7.59-19.935 7.416z" fill="#D0F7F7"/>
        <path d="M178.171 516.798a.733.733 0 0 1-.747-.746V466.65c0-.423.324-.747.747-.747s.746.324.746.747v49.402a.748.748 0 0 1-.746.746z" fill="#0A377A"/>
        <path d="M217.767 481.059c-3.534-.497-9.507-2.663-10.876-7.242-1.692-5.699 5.724-8.511 6.048-16.923.298-7.89-6.073-9.358-6.048-17.521.025-6.72 4.38-14.51 11.473-16.924 5.55-1.867 13.166-.572 14.51 3.011 1.842 4.953-9.881 9.607-9.059 17.521.721 7.019 10.378 7.566 12.692 16.924 1.668 6.819-1.941 12.568-2.414 13.29-3.21 4.953-9.532 8.835-16.326 7.864z" fill="#E7FFF7"/>
        <path d="M221.226 514.185a.733.733 0 0 1-.746-.747V458.86c0-.423.323-.747.746-.747s.747.324.747.747v54.578a.749.749 0 0 1-.747.747z" fill="#0A377A"/>
        <path d="M1268.42 418.268c.4-1.17.88-3.186 0-5.052-1.49-3.236-6.39-5.003-11.82-3.385-.4-.647-4.6-7.466-12.37-7.864-4.03-.2-7.09 1.418-8.43 2.239-3.39-4.604-9.04-6.993-14.64-6.197-8.16 1.195-11.59 8.512-11.82 9.01-4.68-3.783-9.11-5.426-11.82-6.197-4.03-1.12-12.42-3.485-17.45 1.12-2.31 2.115-3.08 4.977-3.38 6.744-4.38-2.09-9.09-1.767-11.25.573-2.86 3.111-2.09 10.676 4.5 15.181 32.86-2.041 65.68-4.106 98.48-6.172z" fill="#87D5FB"/>
        <path d="M1325.79 435.391c-1.79-.125-5.7-.424-9.56-3.062-1.99-1.369-4.33-2.936-5.05-5.624-1.42-5.152 4.73-8.064 3.39-12.942-1-3.633-4.96-3.932-5.63-8.437-.1-.622-.3-2.513.57-4.504 1.87-4.281 6.33-3.435 8.44-6.745 2.79-4.355-2.91-8.86-.57-15.181 1.64-4.406 6.47-7.765 9.01-6.745 2.44.971 2.71 6.048 2.81 7.864.3 5.401-1.84 6.969-.57 9.557 1.37 2.813 4.23 1.718 7.86 5.053 2.52 2.314 5.4 6.694 4.51 10.676-.9 3.982-5.03 5.028-4.51 7.317.5 2.19 4.38 1.568 6.75 4.505 2.46 3.061 1.96 8.387 0 11.822-4.18 7.341-15.21 6.595-17.45 6.446z" fill="#E7FFF7"/>
        <path d="M1327.11 454.828a.738.738 0 0 1-.75-.747v-43.13c0-.423.33-.747.75-.747s.75.324.75.747v43.13c0 .398-.35.747-.75.747z" fill="#0A377A"/>
        <path d="M1403.99 417.447c-.9-1.394-4.13-6.322-4.26-13.34-.15-8.562 4.43-13.265 3.46-20.582-.52-4.007-2.11-4.256-2.11-7.79 0-4.878 2.98-5.874 3.7-11.673.63-5.077-1.34-6.993-1.59-13.339-.32-7.964 2.24-18.89 6.37-20.582 3.31-1.344 7.07 3.384 8.49 9.457 1.92 8.113-1.37 14.509 1.07 22.797 1.19 4.106 2.76 5.226 2.91 9.457.15 4.107-1.27 5.077-1.32 8.91-.1 6.695 4.21 8.487 5.05 15.58 1.02 8.437-3.68 17.322-4.25 18.342-4.63 8.561-12.47 10.478-17.52 2.763z" fill="#B1E4FF"/>
        <path d="M1411.78 455.624a.732.732 0 0 1-.75-.746v-98.282c0-.423.32-.746.75-.746.42 0 .74.323.74.746v98.282c0 .398-.32.746-.74.746z" fill="#0A377A"/>
        <path d="M1370.51 432.628c-4.75 1.095-10.7-1.07-13.68-6.57-2.69-4.928-2.44-11.473-.43-15.679 1.64-3.46 3.69-3.684 4.28-7.093.67-3.783-1.54-5.326-.84-9.109.57-3.161 3.26-2.738 5.12-6.571 2.62-5.375-1.12-10.029 1.15-11.896 1.94-1.593 7.09-.199 9.01 3.011 2.41 4.007-2.71 6.869-1.5 14.261.75 4.53 3.66 9.258 7.02 14.734.87 1.443.85 1.244 1.02 1.667 2.82 6.645-1.94 21.105-11.15 23.245z" fill="#113BC1"/>
        <path d="M1368.65 458.238a.732.732 0 0 1-.75-.747v-38.128c0-.423.32-.747.75-.747.42 0 .74.324.74.747v38.128a.73.73 0 0 1-.74.747z" fill="#0A377A"/>
        <path d="M1066.78 520.805c124.39.075 248.81.174 373.2.249v-73.369c-17.9 4.778-31.06 8.761-39.92 11.598-3.17.995-9.09 2.762-18.97 6.047-10.78 3.609-13.86 4.953-20.11 6.322-29.61 6.545-44.5-5.077-72.57-7.865-36.21-3.633-38.43 12.992-83.75 19.139-63.34 8.561-108.63-29.716-155.2 0-7.66 4.878-17.79 13.713-26.08 30.786 14.46 2.339 28.92 4.729 43.4 7.093z" fill="#B1E4FF"/>
        <path d="M155.623 520.705c306.441.075 612.858.125 919.297.2-136.431-52.439-249.969-67.471-307.733-63.887-68.864 4.281-115.802 22.548-115.802 22.548-23.967 9.333-22.548 9.706-35.988 15.007-41.388 16.302-64.334-9.606-122.995-9.009-40.84.423-34.643 13.539-81.009 15.007-38.028 1.195-50.621-6.943-93.005-5.998-32.379.722-55.226 6.148-68.989 9.01-6.346 1.319-6.844 3.957-12.643 5.799-8.636 2.737-26.754 2.065-26.754 2.065-10.005-1.568-26.406-.821-54.379 9.258z" fill="#1C4CC4"/>
        <path d="M0 520.954v-81.258c8.536-6.869 20.557-6.719 28.297-.074 6.62 5.699 9.06 15.281 5.998 23.991 15.48-8.362 30.413-6.869 35.614.573.921 1.319 3.037 4.927 1.867 11.821.996-1.02 5.376-5.301 11.448-5.052 7.218.274 14.012 6.844 15.38 16.127 1.843-.821 4.904-1.891 8.761-1.866 2.464 0 9.209.025 13.738 5.251 4.629 5.351 3.559 12.245 3.385 13.315 4.629-3.36 10.652-3.808 15.182-1.12 5.724 3.385 8.188 11.274 5.052 18.193-48.233 0-96.465.05-144.722.099zM1318.17 506.843c-2.58.274-7.69.796-10.97-2.563-3.61-3.684-3.26-10.179-1.1-14.261 2.19-4.156 5.21-3.758 6.23-7.317 1.24-4.405-2.97-6.496-2.57-11.697.38-4.903 4.78-10.179 9.88-10.602 3.74-.324 6.6 2.09 7.72 3.011 4.5 3.758 6.42 10.279 5.42 15.63-.82 4.529-3.01 5.226-2.93 9.133.1 4.306 3.46 5.052 3.28 8.412-.22 5.053-8.11 9.557-14.96 10.254z" fill="#113BC1"/>
        <path d="M1317.73 521.576a.732.732 0 0 1-.75-.746V477.7c0-.424.32-.747.75-.747.42 0 .74.323.74.747v43.13c0 .398-.32.746-.74.746z" fill="#0A377A"/>
        <path d="M1439.98 428.074c0 21.179.02 42.334.02 63.513-30.39 0-60.78-.025-91.14-.025.47-1.269 1.57-5.226 4.01-7.367.99-.871 2.98-2.563 6.15-3.135 3.41-.598 6.09.497 7.14.995-.13-.771-.25-1.916 0-3.26.74-4.181 4.63-8.96 9.53-8.761 3.81.15 6.27 3.211 6.77 3.883.02-1.369.17-3.385.75-5.749.25-1.021 1.14-4.206 3.75-8.114 2.27-3.359 6.67-9.955 14.07-11.124 1.94-.299 3.6-.15 4.65 0 .07-1.095.32-2.663 1.12-4.381 2.21-4.753 8.09-9.258 13.69-7.74 3.16.846 5.1 3.335 6.02 4.754a23.4 23.4 0 0 1 2.14-4.007c3.54-5.351 8.36-8.138 11.33-9.482z" fill="#113BC1"/>
    </g>
    <defs>
        <clipPath id="yuno4eafpa">
            <path fill="#fff" d="M0 0h1440v518H0z"/>
        </clipPath>
    </defs>
</svg>
