<svg xmlns="http://www.w3.org/2000/svg" enable-background="new 0 0 1364 960" viewBox="0 0 1364 960"><path fill="#D8DFFB" d="M253.655,468.348c-24.498,0-44.355,19.842-44.355,44.34c0,24.482,19.857,44.34,44.355,44.34
	c24.483,0,44.34-19.857,44.34-44.34C297.995,488.19,278.138,468.348,253.655,468.348z M253.655,524.153
	c-6.343,0-11.465-5.137-11.465-11.465c0-6.328,5.122-11.465,11.465-11.465c6.328,0,11.465,5.138,11.465,11.465
	C265.121,519.016,259.983,524.153,253.655,524.153z"/><path fill="#D8DFFB" d="M339.454,499l-18.422-5.895c0-0.001-0.001-0.002-0.001-0.003c-1.446-4.999-3.448-9.787-5.917-14.26
	l8.753-17.376c1.482-2.941,0.91-6.501-1.419-8.83l-8.913-8.913c-2.347-2.347-5.941-2.908-8.891-1.388l-17.213,8.868h-0.012
	c-4.475-2.471-9.236-4.46-14.237-5.906c0,0,0,0,0,0l-6.098-18.48c-1.032-3.127-3.954-5.24-7.248-5.24H247.23
	c-3.319,0-6.257,2.145-7.268,5.306l-5.902,18.443c-0.002,0-0.004,0.001-0.006,0.002c-5.002,1.431-9.763,3.42-14.238,5.891
	c-0.003,0.002-0.006,0.004-0.009,0.005l-17.379-8.755c-2.941-1.482-6.501-0.91-8.83,1.419l-8.913,8.913
	c-2.347,2.347-2.908,5.941-1.388,8.891l8.856,17.191c-2.469,4.487-4.457,9.261-5.903,14.275l-18.473,6.096
	c-3.127,1.032-5.24,3.954-5.24,7.247v12.605c0,3.319,2.145,6.257,5.306,7.268l18.419,5.894c0,0.002,0.001,0.004,0.001,0.006
	c1.446,5,3.449,9.789,5.918,14.262l-8.752,17.372c-1.482,2.941-0.909,6.501,1.419,8.83l8.913,8.913
	c2.347,2.347,5.941,2.908,8.891,1.388l17.209-8.865c4.474,2.471,9.235,4.459,14.236,5.89h0.014l6.103,18.494
	c1.032,3.127,3.954,5.24,7.247,5.24h12.605c3.319,0,6.257-2.145,7.269-5.306l5.896-18.426c0.003-0.001,0.006-0.002,0.009-0.003
	c5.002-1.446,9.778-3.435,14.238-5.906c0.004-0.002,0.008-0.005,0.012-0.007l17.379,8.755c2.941,1.482,6.501,0.91,8.83-1.419
	l8.913-8.913c2.347-2.347,2.908-5.941,1.388-8.891l-8.857-17.192c2.469-4.487,4.456-9.259,5.901-14.273l18.474-6.096
	c3.127-1.032,5.24-3.954,5.24-7.247v-12.605C344.76,502.95,342.615,500.011,339.454,499z M253.655,562.858
	c-27.707,0-50.17-22.464-50.17-50.17c0-27.707,22.464-50.17,50.17-50.17c27.707,0,50.155,22.464,50.155,50.17
	C303.811,540.394,281.362,562.858,253.655,562.858z"/><path fill="#D8DFFB" d="M100.702,428.235c-15.09,6.451-22.097,23.903-15.646,38.993c6.447,15.081,23.908,22.083,38.998,15.632
	c15.081-6.447,22.083-23.908,15.636-38.989C133.24,428.781,115.783,421.787,100.702,428.235z M115.398,462.61
	c-3.907,1.67-8.415-0.145-10.082-4.043c-1.666-3.898,0.136-8.411,4.043-10.082c3.898-1.666,8.415,0.146,10.082,4.043
	C121.107,456.426,119.296,460.943,115.398,462.61z"/><path fill="#D8DFFB" d="M161.625,424.521l-12.9,1.22c0-0.001-0.001-0.001-0.001-0.002c-2.207-2.699-4.701-5.121-7.4-7.226
	l0.816-13.008c0.138-2.202-1.152-4.244-3.199-5.065l-7.837-3.143c-2.064-0.828-4.425-0.227-5.842,1.486l-8.268,9.995l-0.007,0.003
	c-3.407-0.344-6.863-0.315-10.325,0.111c0,0,0,0,0,0l-8.623-9.778c-1.459-1.655-3.816-2.187-5.844-1.319l-7.764,3.319
	c-2.044,0.874-3.289,2.969-3.08,5.182l1.221,12.915c-0.001,0.001-0.002,0.002-0.003,0.002c-2.704,2.199-5.113,4.678-7.219,7.378
	c-0.002,0.002-0.003,0.004-0.004,0.006l-13.011-0.816c-2.202-0.138-4.244,1.152-5.065,3.199l-3.143,7.837
	c-0.828,2.063-0.227,4.425,1.486,5.842l9.982,8.257c-0.339,3.414-0.307,6.878,0.123,10.347l-9.774,8.619
	c-1.655,1.459-2.186,3.815-1.319,5.844l3.319,7.764c0.874,2.044,2.969,3.289,5.182,3.08l12.898-1.22
	c0.001,0.001,0.002,0.002,0.002,0.003c2.207,2.699,4.702,5.122,7.401,7.227l-0.816,13.006c-0.138,2.202,1.152,4.244,3.2,5.065
	l7.837,3.143c2.064,0.828,4.425,0.227,5.843-1.487l8.266-9.993c3.407,0.344,6.863,0.315,10.321-0.121l0.008-0.004l8.629,9.785
	c1.459,1.655,3.816,2.187,5.844,1.319l7.764-3.319c2.044-0.874,3.289-2.969,3.08-5.182l-1.22-12.903
	c0.002-0.001,0.003-0.003,0.005-0.004c2.7-2.208,5.119-4.691,7.215-7.387c0.002-0.003,0.003-0.005,0.005-0.008l13.011,0.816
	c2.202,0.138,4.244-1.152,5.065-3.199l3.143-7.837c0.827-2.064,0.227-4.425-1.486-5.842l-9.983-8.258
	c0.339-3.414,0.306-6.877-0.123-10.346l9.775-8.62c1.655-1.459,2.187-3.815,1.319-5.844l-3.319-7.764
	C165.933,425.557,163.838,424.312,161.625,424.521z M125.59,486.452c-17.067,7.296-36.82-0.626-44.116-17.693
	c-7.296-17.067,0.625-36.82,17.692-44.116c17.067-7.296,36.811,0.63,44.107,17.696C150.57,459.406,142.657,479.155,125.59,486.452z"/><path fill="#D8DFFB" d="M1121.7,136.299c-15.09,6.451-22.097,23.903-15.646,38.993c6.447,15.081,23.908,22.083,38.998,15.632
	c15.081-6.447,22.083-23.908,15.636-38.989C1154.238,136.845,1136.781,129.851,1121.7,136.299z M1136.396,170.674
	c-3.907,1.67-8.415-0.145-10.082-4.043c-1.666-3.898,0.136-8.412,4.043-10.082c3.898-1.666,8.416,0.146,10.082,4.043
	C1142.105,164.49,1140.294,169.008,1136.396,170.674z"/><path fill="#D8DFFB" d="M1182.623,132.586l-12.9,1.22c0-0.001-0.001-0.001-0.001-0.002c-2.207-2.699-4.701-5.121-7.4-7.226
	l0.816-13.008c0.138-2.202-1.152-4.244-3.199-5.065l-7.838-3.143c-2.063-0.828-4.425-0.227-5.842,1.486l-8.268,9.995l-0.007,0.003
	c-3.407-0.344-6.863-0.315-10.326,0.111c0,0,0,0,0,0l-8.623-9.778c-1.459-1.654-3.816-2.187-5.844-1.319l-7.764,3.319
	c-2.044,0.874-3.289,2.969-3.08,5.182l1.221,12.915c-0.001,0.001-0.002,0.002-0.003,0.002c-2.704,2.199-5.113,4.678-7.219,7.378
	c-0.002,0.002-0.003,0.004-0.004,0.006l-13.011-0.816c-2.202-0.138-4.244,1.152-5.065,3.199l-3.143,7.838
	c-0.828,2.063-0.227,4.425,1.486,5.842l9.982,8.257c-0.339,3.414-0.307,6.878,0.123,10.347l-9.774,8.62
	c-1.655,1.459-2.187,3.815-1.319,5.844l3.319,7.764c0.874,2.044,2.969,3.289,5.182,3.08l12.898-1.22
	c0.001,0.001,0.002,0.002,0.002,0.003c2.207,2.699,4.702,5.121,7.401,7.226l-0.816,13.006c-0.138,2.202,1.152,4.244,3.2,5.065
	l7.837,3.143c2.063,0.828,4.425,0.227,5.842-1.486l8.266-9.993c3.407,0.344,6.863,0.315,10.32-0.121l0.008-0.004l8.629,9.785
	c1.459,1.655,3.816,2.187,5.844,1.319l7.764-3.319c2.044-0.874,3.289-2.969,3.08-5.182l-1.22-12.903
	c0.002-0.001,0.003-0.002,0.005-0.004c2.7-2.208,5.119-4.691,7.215-7.387c0.002-0.003,0.004-0.005,0.005-0.008l13.011,0.816
	c2.202,0.138,4.244-1.152,5.065-3.199l3.143-7.837c0.828-2.064,0.227-4.425-1.486-5.842l-9.983-8.258
	c0.339-3.414,0.306-6.877-0.123-10.346l9.774-8.62c1.655-1.459,2.187-3.815,1.319-5.844l-3.319-7.764
	C1186.931,133.621,1184.836,132.376,1182.623,132.586z M1146.589,194.516c-17.067,7.296-36.82-0.626-44.116-17.693
	c-7.296-17.067,0.625-36.82,17.693-44.116c17.067-7.296,36.811,0.63,44.107,17.696
	C1171.568,167.47,1163.655,187.219,1146.589,194.516z"/><path fill="#C4CFFB" d="M1103.177,478.424c0.348-3.87,4.656-6.428,8.515-6.048c3.859,0.379,7.178,2.922,9.851,5.749
	c4.324,4.573,7.283,9.655,10.141,15.101c-0.339-5.827-0.466-11.666-0.41-17.488c0.037-3.85,0.16-7.703,0.365-11.554
	c-8.698-0.841-17.128-4.335-23.854-9.916c-2.549-2.116-5.035-4.984-4.73-8.283c0.356-3.854,4.665-6.412,8.518-6.043
	c3.853,0.369,7.161,2.892,9.824,5.701c4.471,4.716,7.472,9.982,10.415,15.633c0.767-11.858,2.37-23.668,4.986-35.25
	c-8.311-2.252-15.939-6.988-21.61-13.47c-2.182-2.493-4.182-5.719-3.358-8.928c0.963-3.748,5.623-5.59,9.368-4.615
	c3.745,0.974,6.612,3.99,8.796,7.187c3.538,5.178,5.644,10.644,7.593,16.454c2.949-12.165,7.123-24.513,14.358-34.773
	c0.15-0.213,0.311-0.421,0.463-0.633c-8.015-3.399-14.989-9.228-19.729-16.534c-1.804-2.779-3.322-6.258-2.049-9.316
	c1.489-3.573,6.364-4.73,9.932-3.231c3.568,1.5,5.974,4.894,7.679,8.368c3.005,6.122,4.284,12.34,5.451,18.957
	c8.681-11.624,19.542-21.697,27.809-33.601c-8.189-3.372-15.323-9.272-20.144-16.703c-1.804-2.779-3.323-6.258-2.048-9.316
	c1.488-3.572,6.364-4.73,9.931-3.23c3.568,1.5,5.974,4.894,7.679,8.368c3.085,6.286,4.351,12.674,5.545,19.492
	c2.013-3.012,3.854-6.144,5.442-9.456c3.216-6.705,4.964-14.034,5.472-21.515c-9-1.047-17.651-4.948-24.376-11.023
	c-2.458-2.221-4.822-5.191-4.378-8.474c0.518-3.835,4.931-6.21,8.764-5.679c3.834,0.53,7.033,3.191,9.576,6.108
	c4.662,5.351,7.546,11.283,10.496,17.66c0.569-12.089-2.062-24.491-7.003-35.236c-7.989-1.938-15.424-6.146-21.164-12.036
	c-2.312-2.373-4.482-5.488-3.831-8.735c0.761-3.795,5.316-5.884,9.108-5.111c3.792,0.774,6.816,3.632,9.167,6.706
	c3.751,4.904,6.131,10.161,8.358,15.758c0.178,0.136,0.337,0.318,0.457,0.565c4.41,9.05,6.936,18.971,7.701,28.998
	c0.168,2.211,0.257,4.439,0.263,6.67c3.002-7.413,8.043-13.999,14.455-18.783c2.655-1.982,6.028-3.724,9.162-2.653
	c3.663,1.251,5.136,6.04,3.873,9.699c-1.263,3.658-4.493,6.282-7.849,8.211c-6.259,3.597-12.751,5.273-19.712,6.96
	c-0.195,4.677-0.824,9.332-2.108,13.827c-1.943,6.808-5.113,12.959-8.942,18.725c6.15-5.498,13.865-9.24,22.003-10.612
	c3.267-0.551,7.063-0.563,9.363,1.821c2.687,2.785,1.813,7.719-0.981,10.398c-2.793,2.679-6.864,3.538-10.73,3.723
	c-7.408,0.353-14.11-1.21-21.288-2.943c-6.592,9.326-14.771,17.709-22.046,26.355c-2.29,2.722-4.486,5.487-6.521,8.357
	c6.369-6.3,14.698-10.595,23.53-12.096c3.266-0.555,7.062-0.572,9.366,1.808c2.691,2.782,1.823,7.717-0.967,10.399
	c-2.79,2.682-6.86,3.548-10.726,3.737c-7.576,0.372-14.416-1.263-21.783-3.032c-2.136,3.083-4.074,6.297-5.714,9.729
	c-2.998,6.278-5.278,12.889-7.135,19.586c-0.494,1.781-0.955,3.571-1.392,5.368c5.205-6.237,12.158-11.012,19.868-13.582
	c3.143-1.048,6.892-1.644,9.531,0.357c3.085,2.338,2.98,7.348,0.633,10.425c-2.348,3.077-6.238,4.554-10.029,5.331
	c-7.005,1.437-13.636,1.012-20.698,0.436c-2.554,11.316-4.046,22.893-4.776,34.47c3.667-7.644,9.576-14.205,16.826-18.604
	c2.832-1.718,6.356-3.131,9.374-1.765c3.526,1.596,4.535,6.504,2.928,10.024c-1.607,3.521-5.072,5.824-8.597,7.423
	c-6.689,3.034-13.428,4.065-20.658,5.097c-0.084,1.535-0.16,3.071-0.22,4.605c-0.325,8.421-0.27,16.888,0.255,25.324
	c3.685-7.39,9.477-13.725,16.54-18.01c2.832-1.718,6.356-3.131,9.374-1.766c3.526,1.596,4.535,6.504,2.928,10.025
	c-1.607,3.521-5.073,5.823-8.597,7.422c-6.505,2.951-13.057,4.008-20.062,5.012c0.714,9.609,2.052,19.167,4.164,28.556
	c0.439,1.956-2.624,2.503-3.063,0.551c-2.132-9.481-3.464-19.137-4.178-28.839c-8.738-0.854-17.216-4.386-23.983-10.024
	C1105.376,484.624,1102.88,481.737,1103.177,478.424z"/><path fill="#FFB0EE" d="M1175.632,647.289c-6.664,0.983-17.01,1.578-33.726-3.106c-10.247-2.91-24.473-6.857-39.387-18.071
	c-0.644-0.485-1.784-1.329-3.2-2.528c-0.074-0.052-0.158-0.113-0.222-0.176c-0.137-0.093-0.275-0.206-0.422-0.309
	c-0.486-0.392-0.993-0.826-1.563-1.239c-10.564-9.012-31.328-29.69-29.505-54.63c0.082-1.436,1.547-19.565,10.761-22.386
	c11.554-3.412,27.026,19.344,31.578,16.289c2.296-1.56-0.931-7.59-2.117-15.787c-2.838-18.39,4.933-43.119,20.746-48.104
	c7.464-2.432,17.023-0.449,23.289,5.443c10.291,9.46,3.955,29.152,5.633,29.47c2.448,0.357,3.325-39.661,24.246-49.03
	c7.356-3.253,17.8-2.995,22.503,2.102c6.88,7.484-1.669,22.352,2.565,24.756c4.488,2.548,13.191-14.317,33.306-20.348
	c5.113-1.494,17.12-5.071,25.929,1.314c7.688,5.456,10.893,16.433,8.23,25.236c-2.505,8.115-9.365,12.297-11.282,13.387
	c-12.328,7.286-21.645-0.019-44.514,4.848c-7.982,1.671-16.573,4.619-16.494,7.371c0.194,2.022,5.141,2.071,10.844,6.57
	c0.127,0.082,0.317,0.205,0.539,0.423c1.722,1.394,7.828,6.392,8.537,13.764c0.074,0.305,0.669,8.322-4.334,11.797
	c-2.55,1.839-5.567,1.661-6.886,1.63c-13.143-0.505-29.644,2.856-29.819,5.001c-0.271,2.452,20.932,3.069,22.887,11.031
	c1.615,6.618-10.934,14.552-12.556,15.571c-13.56,8.437-29.066,7.277-29.001,8.458c0.096,1,12.508-1.192,23.352,5.484
	c5.069,3.075,12.496,9.664,11.219,15.488C1195.277,644.188,1181.453,646.384,1175.632,647.289z"/><path fill="#FFF" d="M1174.281,601.054c-0.738-2.808-3.831-3.798-6.442-3.97c-3.292-0.218-6.601,0.432-9.753,1.401
	c-6.631,2.039-12.911,5.706-19.916,6.254c-3.54,0.277-7.128-0.277-10.148-2.151c7.587-7.909,14.248-16.714,20.735-25.526
	c2.428-3.297,4.852-6.614,7.314-9.905c10.219-4.061,21.06,1.708,31.52-0.609c2.783-0.617,5.381-1.828,7.515-3.754
	c0.359-0.325-0.17-0.841-0.528-0.518c-4.089,3.691-9.771,4.335-15.008,4.08c-5.185-0.253-10.272-1.448-15.482-1.398
	c-2.452,0.023-4.89,0.369-7.223,1.148c6.672-8.869,13.671-17.511,21.931-24.959c10.004-9.018,21.942-16.412,35.228-19.053
	c1.667-0.325,3.343-0.576,5.02-0.743c0.474-0.061,0.474-0.8-0.002-0.76c-13.023,1.36-25.069,7.406-35.328,15.458
	c-1.749,1.37-3.429,2.812-5.077,4.288c0.023-0.082,0.028-0.17-0.023-0.264c-3.115-5.791,0.342-12.252,3.652-17.184
	c1.811-2.697,3.75-5.341,5.103-8.305c1.125-2.461,1.991-5.268,1.131-7.915c-0.148-0.453-0.87-0.253-0.722,0.202
	c1.005,3.093-0.485,6.466-1.981,9.181c-1.628,2.957-3.709,5.632-5.49,8.495c-2.927,4.706-5.142,10.699-2.341,15.906
	c0.09,0.168,0.245,0.186,0.387,0.146c-9.256,8.353-17.026,18.227-24.442,28.227c-4.111,5.542-8.166,11.147-12.369,16.628
	c-5.907-5.517-9.484-13.597-9.849-21.709c-0.199-4.432,0.774-8.589,2.375-12.728c1.739-4.493,3.92-8.904,4.584-13.713
	c0.655-4.746-0.403-9.966-4.275-13.044c-0.369-0.293-0.899,0.24-0.526,0.537c3.9,3.101,4.775,8.386,3.956,13.12
	c-0.839,4.854-3.126,9.287-4.823,13.879c-1.468,3.974-2.254,8.014-2.023,12.234c0.214,3.922,1.165,7.774,2.702,11.364
	c1.719,4.014,4.214,7.699,7.414,10.667c-5.134,6.662-10.506,13.125-16.539,19.016c-4.18,4.087-8.714,7.89-13.561,11.191
	c1.045-12.038-8.829-21.095-12.168-31.897c-0.978-3.161-1.386-6.486-0.787-9.786c0.086-0.47-0.635-0.652-0.722-0.176
	c-2.203,12.128,7.636,21.612,11.466,32.147c1.158,3.183,1.789,6.53,1.456,9.943c-0.01,0.102,0.03,0.17,0.077,0.227
	c-3.693,2.462-7.562,4.636-11.623,6.373c0.148,0.103,0.285,0.216,0.422,0.309c0.064,0.062,0.148,0.124,0.222,0.176
	c6.925-3.003,13.372-7.21,19.239-12.092c3.141-2.618,6.099-5.42,8.934-8.342c5.053,3.235,11.43,2.758,17.011,1.081
	c6.478-1.947,12.545-5.429,19.319-6.271c3.123-0.388,8.725-0.56,9.739,3.295C1173.682,601.719,1174.403,601.516,1174.281,601.054z"/><path fill="#C4CFFB" d="M252.311,324.988c-2.628,0.513-5.474-0.945-7.155-3.235c-1.681-2.29-2.298-5.27-2.14-8.085
	c0.159-2.816,1.033-5.501,2.075-8.06c1.725-4.235,4.04-8.341,7.346-11.268c-6.543-0.582-13.107-0.631-19.621-0.154
	c-0.592,0.043-1.183,0.098-1.775,0.15c0.861,4.86,1.722,9.719,2.583,14.578c0.575,3.242,1.15,6.58,0.539,9.758
	c-0.611,3.18-2.699,6.205-5.74,6.799c-2.628,0.514-5.474-0.945-7.155-3.235c-1.681-2.29-2.298-5.27-2.14-8.085
	c0.158-2.815,1.033-5.501,2.075-8.06c1.779-4.369,4.185-8.601,7.661-11.543c-7.201,0.763-14.311,2.161-21.234,4.182
	c0.694,4.95,1.388,9.9,2.082,14.851c0.456,3.257,0.909,6.61,0.182,9.757c-0.728,3.147-2.928,6.081-5.994,6.551
	c-2.65,0.406-5.445-1.164-7.044-3.516c-1.599-2.352-2.108-5.35-1.846-8.152c0.261-2.802,1.235-5.446,2.372-7.957
	c1.821-4.021,4.187-7.901,7.434-10.673c-4.97,1.584-9.836,3.485-14.557,5.709c-1.398,0.659-2.777,1.354-4.146,2.069
	c0.555,5.108,1.11,10.216,1.664,15.324c0.355,3.267,0.704,6.628-0.124,9.743c-0.827,3.115-3.122,5.967-6.205,6.331
	c-2.665,0.314-5.413-1.349-6.94-3.752c-1.527-2.403-1.943-5.412-1.593-8.199c0.35-2.788,1.406-5.392,2.624-7.859
	c1.739-3.525,3.912-6.919,6.729-9.497c-4.553,2.6-8.933,5.514-13.106,8.727c-1.772,4.542-3.545,9.084-5.318,13.626
	c-1.163,2.981-2.375,6.04-4.535,8.301c-2.16,2.26-5.521,3.561-8.463,2.332c-2.543-1.063-4.264-3.864-4.548-6.69
	c-0.284-2.825,0.708-5.615,2.288-7.833c1.58-2.218,3.715-3.925,5.931-5.434c4.083-2.781,8.718-5.021,13.645-5.212
	c0.013-0.012,0.022-0.024,0.037-0.035c4.435-3.428,9.106-6.518,13.967-9.258c-3.945,0.568-8.112-0.035-12.07-1.091
	c-2.64-0.704-5.277-1.62-7.584-3.194c-2.307-1.574-4.274-3.873-5.057-6.616c-0.783-2.743-0.208-5.925,1.783-7.739
	c2.304-2.099,5.942-1.958,8.808-0.531c2.866,1.428,5.14,3.909,7.338,6.333c3.349,3.691,6.698,7.382,10.046,11.073
	c6.05-3.162,12.368-5.793,18.87-7.869c-4.218-0.376-8.387-2.105-12.208-4.257c-2.42-1.363-4.787-2.928-6.675-5.036
	c-1.888-2.108-3.27-4.824-3.387-7.654c-0.118-2.831,1.198-5.728,3.579-6.946c2.754-1.409,6.285-0.326,8.755,1.788
	c2.47,2.114,4.11,5.083,5.691,7.978c2.406,4.406,4.812,8.812,7.218,13.218c0.206-0.06,0.411-0.125,0.618-0.184
	c6.775-1.932,13.722-3.273,20.749-4.021c-4.664-1.049-8.956-3.874-12.716-7.119c-2.128-1.837-4.166-3.858-5.624-6.305
	c-1.458-2.447-2.3-5.376-1.87-8.147c0.431-2.772,2.291-5.303,4.879-5.978c2.994-0.781,6.274,1.02,8.307,3.597
	c2.033,2.577,3.08,5.806,4.083,8.951c1.576,4.941,3.152,9.881,4.729,14.822c0.098-0.009,0.197-0.017,0.295-0.025l0.061-0.128
	c0.007,0.04,0.014,0.08,0.021,0.121c6.854-0.607,13.777-0.644,20.691-0.092c-3.574-2.582-6.464-6.262-8.846-10.117
	c-1.526-2.469-2.905-5.083-3.588-7.907c-0.683-2.824-0.613-5.899,0.656-8.393c1.269-2.495,3.866-4.278,6.611-4.047
	c3.175,0.267,5.841,3.092,7.047,6.234c1.206,3.142,1.246,6.572,1.269,9.907c0.032,4.736,0.065,9.472,0.097,14.207
	c0.025,0.142,0.051,0.285,0.076,0.427c7.606,0.819,15.166,2.359,22.563,4.627c0.781,0.239,0.63,1.551-0.162,1.309
	c-7.273-2.229-14.696-3.751-22.161-4.578c0.817,4.61,1.634,9.22,2.451,13.83c0.574,3.242,1.149,6.579,0.538,9.759
	C257.44,321.369,255.352,324.394,252.311,324.988z"/><path fill="#FFB0EE" d="M211.082,225.433c15.083,1.304,42.12-15.529,55.409-7.93c-4.902,17.074-28.164,5.883-41.518,10.613
	c-12.017,5.788,19.096,28.456,38.709,26.314c16.083-1.093,19.953-21.37,46.693-40.874c22.617-16.998,31.178-13.508,39.06-26.591
	c14.416-23.942,0.314-59.704-3.253-59.498c-1.441,0.084-0.493,5.947-4.878,17.789c0.51,1.417-22.164,45.264-26.116,25.004
	c1.433-22.318,29.117-25.166,25.869-52.987c-2.444-20.859-29.519-34.126-31.083-32.497c11.985,10.141,2.724,49.487-10.354,60.526
	c-8.389,5.973-8.251-2.6-5.232-11.427c6.085-30.354,11.397-45.929-2.679-66.543C274.455,42.063,244,55.23,211.116,44.958
	c0,0-25.951,33.349-21.493,61.361c4.29,26.96,33.738,18.569,47.172,31.291c6.354,4.939,3.54,14.875-3.065,17.029
	c-10.665,5.806-25.343-0.622-35.877-5.374c-17.447-7.882-21.678-14.594-25.214-12.407c-9.553,5.477,5.547,41.599,22.603,43.718
	c17.523,10.64,53.404-9.898,67.759,7.316c-6.862,14.729-51.289,12.553-67.395,5.734c-8.067-4.555-11.792-11.096-13.221-10.214
	C182.226,193.421,197.614,223.352,211.082,225.433z"/><path fill="#FFF" d="M243.159,238.167c4.449,1.598,9.244,2.066,13.921,1.416c4.54-0.626,8.765-2.378,12.592-4.862
	c4.19-2.731,7.866-6.131,11.621-9.415c4.074-3.549,8.335-6.895,12.801-9.938c2.02-1.369,4.05-2.79,6.211-3.928
	c1.799-0.949,3.884-1.668,5.883-0.894c0.022,0.009,0.038-0.006,0.06,0.003c0.205,0.317,0.426,0.62,0.623,0.944
	c0.67,1.073,1.317,2.168,1.918,3.291c0.133-0.122,0.273-0.222,0.42-0.329c-1.106-2.017-2.326-3.986-3.656-5.869
	c0-0.015,0.002-0.03-0.006-0.038c-0.338-0.932-0.484-1.953-0.533-2.949c-0.051-0.935-0.052-2.004,0.396-2.85
	c0.676-1.259,1.839-2.272,2.908-3.199c1.077-0.919,2.182-1.821,3.301-2.693c7.875-6.139,16.617-11.241,23.681-18.369
	c5.802-5.863,10.542-13.176,11.443-21.537c0.037-0.336-0.496-0.366-0.534-0.014c-0.531,4.869-2.414,9.463-5.072,13.56
	c-5.206,8.017-12.958,13.754-20.647,19.231c-4.263,3.029-8.562,6.02-12.532,9.431c-1.458,1.257-3.167,2.729-3.422,4.742
	c-0.152,1.123-0.082,2.344,0.157,3.498c-3.871-5.193-8.53-9.734-13.144-14.257c-0.209-0.212-0.434-0.425-0.643-0.636
	c0,0,0,0,0.001-0.015c-1.303-4.553-1.081-9.381,0.092-13.945c2.384-9.307,8.594-16.658,14.929-23.605
	c1.733-1.9,3.482-3.8,5.187-5.731c1.601-1.807,3.212-3.652,4.552-5.682c2.264-3.458,3.721-7.777,2.385-11.865
	c-0.107-0.32-0.631-0.214-0.517,0.114c1.685,5.141-1.111,10.187-4.267,14.105c-6.279,7.777-14.054,14.432-19.014,23.233
	c-3.807,6.758-5.96,15.014-4.072,22.683c-4.317-4.248-8.592-8.592-12.096-13.559c-1.912-2.72-3.516-5.607-4.913-8.599
	c-0.007-0.023,0.002-0.045-0.012-0.076c-0.022-0.023-0.035-0.054-0.064-0.085c-1.257-2.715-2.354-5.506-3.351-8.331
	c-1.657-4.703-3.093-9.479-4.697-14.202c0.306-5.24,1.937-10.326,3.86-15.175c3.443-8.706,8.493-16.97,9.911-26.354
	c1.254-8.352-1.145-18.255-8.984-22.656c-0.301-0.171-0.583,0.277-0.282,0.448c4.361,2.444,7.106,6.868,8.323,11.643
	c2.352,9.239-1.294,18.478-5.083,26.794c-3.49,7.652-7.375,15.58-8.176,24.064c-0.209-0.603-0.409-1.214-0.625-1.824
	c-2.183-6.011-4.949-11.73-8.384-17.123c-7.039-11.049-16.173-20.544-25.238-29.917c-0.23-0.25-0.621,0.11-0.391,0.36
	c1.112,1.144,2.223,2.289,3.327,3.44c8.693,9.063,17.29,18.461,23.65,29.354c-2.659-2.134-6.173-3.031-9.403-3.886
	c-4.049-1.069-8.708-2.488-10.716-6.535c-0.153-0.307-0.622-0.063-0.469,0.244c1.875,3.794,6.095,5.458,9.941,6.511
	c4.003,1.098,8.557,1.963,11.473,5.16c0.014,0.016,0.03,0.001,0.044,0.017c0,0,0,0,0.008,0.008c3.075,5.537,5.339,11.4,7.327,17.403
	c1.899,5.751,3.609,11.562,5.883,17.186c0.218,0.536,0.452,1.072,0.679,1.601c-3.299-3.582-8.345-5.265-13.144-5.658
	c-5.549-0.454-11.054,0.929-16.404,2.229c-5.313,1.293-10.621,2.294-16.084,2.513c-10.521,0.41-21.099-1.598-30.728-5.855
	c-0.31-0.148-0.467,0.372-0.156,0.505c5.247,2.323,10.776,3.98,16.432,4.942c5.073,0.864,10.237,1.167,15.379,0.897
	c5.309-0.292,10.452-1.315,15.604-2.563c5.373-1.306,10.899-2.651,16.473-2.09c5.147,0.52,10.629,2.611,13.551,7.119
	c2.061,4.373,4.571,8.479,7.635,12.262c4.219,5.177,9.125,9.736,13.86,14.423c0.405,0.408,0.802,0.808,1.199,1.208
	c-3.481-1.159-7.29-1.278-10.909-0.75c-3.89,0.562-7.605,1.974-11.26,3.373c-3.784,1.462-7.574,2.871-11.493,3.936
	c-7.602,2.072-15.455,3.133-23.326,3.155c-0.346,0.001-0.369,0.541-0.029,0.533c4.32-0.017,8.644-0.328,12.905-0.958
	c3.831-0.565,7.626-1.372,11.341-2.422c3.814-1.085,7.498-2.483,11.19-3.904c3.7-1.412,7.474-2.807,11.428-3.283
	c3.667-0.444,7.51-0.21,10.967,1.173c0.015,0.001,0.016-0.014,0.023-0.006c3.495,3.56,6.818,7.278,9.62,11.389
	c-1.831-0.482-3.727,0.08-5.395,0.922c-2.45,1.215-4.73,2.852-6.982,4.392c-4.352,2.996-8.511,6.248-12.491,9.726
	c-3.833,3.356-7.588,6.858-11.906,9.592c-3.925,2.486-8.244,4.152-12.862,4.662c-4.331,0.476-8.749-0.037-12.849-1.507
	C242.996,237.55,242.839,238.056,243.159,238.167z"/><rect width="850.723" height="547.375" x="277.76" y="187.5" fill="#FFF"/><rect width="146.077" height="168.895" x="632.284" y="745.787" fill="#7E97FB"/><path fill="#6E88F0" d="M778.361,745.787v168.895h-19.723c1.397-16.885,2.969-67.714-23.734-106.677
	c-24.738-36.038-77.883-40.184-102.62-39.879v-22.34H778.361z"/><path fill="#4D4D4D" d="M854.491,874.817H561.25c-24.188,0-43.793,19.607-43.793,43.795l0,0h380.828l0,0
	C898.286,894.425,878.678,874.817,854.491,874.817z"/><path fill="#7E97FB" d="M854.491,874.817H561.25c-24.188,0-43.793,19.607-43.793,43.795l0,0h380.828l0,0
	C898.286,894.425,878.678,874.817,854.491,874.817z"/><path fill="#7E97FB" d="M1128.447,173.397H282.192c-6.959,0-12.606,5.647-12.606,12.605v555.774c0,6.959,5.647,12.605,12.606,12.605
	h846.255c6.968,0,12.605-5.646,12.605-12.605V186.002C1141.052,179.044,1135.415,173.397,1128.447,173.397z M1120.039,693.449
	c0,7.423-5.996,13.44-13.399,13.44H298.91c-7.403,0-13.409-6.017-13.409-13.44V204.318c0-7.424,6.007-13.441,13.409-13.441h807.73
	c7.403,0,13.399,6.017,13.399,13.441V693.449z"/><path fill="#FFF" d="M1086.896,731.213h-34.144c-2.727,0-4.939-2.211-4.939-4.94l0,0c0-2.727,2.212-4.94,4.939-4.94h34.144
	c2.727,0,4.94,2.213,4.94,4.94l0,0C1091.836,729.002,1089.623,731.213,1086.896,731.213z"/><path fill="#DFE2ED" d="M1089.236,722.003c0.388,0.705,0.668,1.476,0.668,2.34c0,2.727-2.21,4.94-4.939,4.94h-34.142
	c-0.866,0-1.636-0.281-2.34-0.67c0.84,1.526,2.404,2.6,4.27,2.6h34.144c2.727,0,4.94-2.211,4.94-4.94
	C1091.836,724.409,1090.762,722.843,1089.236,722.003z"/><path fill="#FFF" d="M1038.223,731.213h-19.642c-2.729,0-4.94-2.211-4.94-4.94l0,0c0-2.727,2.211-4.94,4.94-4.94h19.642
	c2.728,0,4.94,2.213,4.94,4.94l0,0C1043.163,729.002,1040.95,731.213,1038.223,731.213z"/><path fill="#DFE2ED" d="M1039.598,721.612c0.683,0.847,1.15,1.881,1.15,3.052c0,2.729-2.211,4.939-4.94,4.939h-19.643
	c-0.487,0-0.929-0.145-1.374-0.279c0.906,1.124,2.235,1.888,3.79,1.888h19.642c2.728,0,4.938-2.211,4.938-4.94
	C1043.161,724.032,1041.643,722.217,1039.598,721.612z"/><path fill="#FFF" d="M1002.693,731.473h-19.642c-2.73,0-4.94-2.211-4.94-4.94l0,0c0-2.727,2.21-4.94,4.94-4.94h19.642
	c2.727,0,4.938,2.213,4.938,4.94l0,0C1007.632,729.262,1005.421,731.473,1002.693,731.473z"/><path fill="#DFE2ED" d="M1002.693,721.593h-0.74c0.592,0.814,1.011,1.764,1.011,2.849c0,2.727-2.21,4.937-4.939,4.937h-18.903
	c0.899,1.236,2.285,2.093,3.929,2.093h19.642c2.727,0,4.938-2.211,4.938-4.94C1007.632,723.806,1005.421,721.593,1002.693,721.593z"/><path fill="#FFF" d="M956.897,726.273c0-4.194,3.401-7.593,7.595-7.593s7.596,3.399,7.596,7.593c0,4.196-3.401,7.595-7.596,7.595
	S956.897,730.469,956.897,726.273z"/><path fill="#DFE2ED" d="M968.589,719.894c0.76,1.183,1.214,2.583,1.214,4.097c0,4.192-3.399,7.593-7.595,7.593
	c-1.511,0-2.911-0.454-4.094-1.215c1.351,2.1,3.696,3.499,6.378,3.499c4.194,0,7.596-3.399,7.596-7.595
	C972.087,723.59,970.688,721.244,968.589,719.894z"/><path fill="#6E88F0" d="M854.491,874.817H561.25c-13.611,0-25.77,6.21-33.803,15.949c5.3-2.276,11.134-3.547,17.27-3.547h293.239
	c19.878,0,36.636,13.252,41.986,31.394h18.344l0,0C898.286,894.425,878.678,874.817,854.491,874.817z"/><path fill="#7E97FB" d="M319.218,251c0-18.594,15.073-33.667,33.666-33.667c18.594,0,33.666,15.073,33.666,33.667
	c0,18.593-15.073,33.666-33.666,33.666C334.291,284.666,319.218,269.593,319.218,251z"/><path fill="#7E97FB" d="M934.243,233.507H430.282c-11.059,0-20.023,7.832-20.023,17.493l0,0c0,9.661,8.964,17.493,20.023,17.493
	h503.961c11.058,0,20.022-7.832,20.022-17.493l0,0C954.265,241.338,945.301,233.507,934.243,233.507z"/><path fill="#7E97FB" d="M1040.448,268.493h-47.529c-9.661,0-17.493-7.832-17.493-17.493l0,0c0-9.661,7.832-17.493,17.493-17.493
	h47.529c9.661,0,17.493,7.832,17.493,17.493l0,0C1057.941,260.661,1050.11,268.493,1040.448,268.493z"/><path fill="#FFF" d="M1028.086,259.44l-7.708-5.404c-0.089-0.063-0.184-0.111-0.28-0.157c0.725-1.383,1.141-2.952,1.141-4.618
	c0-5.505-4.479-9.984-9.984-9.984c-5.505,0-9.984,4.479-9.984,9.984c0,5.506,4.479,9.985,9.984,9.985
	c2.508,0,4.798-0.937,6.554-2.471c0.111,0.138,0.234,0.268,0.387,0.375l7.708,5.403c0.43,0.302,0.942,0.4,1.421,0.316
	c0.479-0.084,0.926-0.352,1.228-0.782C1029.155,261.229,1028.946,260.043,1028.086,259.44z M1011.254,256.393
	c-3.933,0-7.132-3.199-7.132-7.132c0-3.932,3.199-7.131,7.132-7.131c3.933,0,7.132,3.199,7.132,7.131
	C1018.386,253.195,1015.187,256.393,1011.254,256.393z"/><path fill="#7E97FB" d="M1079.066,239.448c0-2.187,1.773-3.961,3.96-3.961c2.188,0,3.961,1.774,3.961,3.961
	c0,2.188-1.773,3.961-3.961,3.961C1080.839,243.408,1079.066,241.635,1079.066,239.448z"/><path fill="#7E97FB" d="M1079.066,249.349c0-2.187,1.773-3.96,3.96-3.96c2.188,0,3.961,1.773,3.961,3.96
	c0,2.188-1.773,3.961-3.961,3.961C1080.839,253.31,1079.066,251.537,1079.066,249.349z"/><path fill="#7E97FB" d="M1079.066,259.251c0-2.188,1.773-3.961,3.96-3.961c2.188,0,3.961,1.773,3.961,3.961
	c0,2.188-1.773,3.961-3.961,3.961C1080.839,263.212,1079.066,261.439,1079.066,259.251z"/><circle cx="352.616" cy="242.249" r="13.152" fill="#FFF"/><path fill="#FFF" d="M364.679,255.508c-1.058-0.827-2.538-0.798-3.579,0.051c-2.264,1.847-5.158,2.96-8.314,2.96
	c-3.053,0-5.862-1.04-8.091-2.788c-1.061-0.832-2.565-0.815-3.588,0.062c-2.653,2.275-4.269,5.556-4.269,9.821v0.385
	c0,2.205,1.788,3.993,3.993,3.993h24.577c2.205,0,3.993-1.788,3.993-3.993v-0.385C369.403,261.166,367.598,257.788,364.679,255.508z
	"/><path fill="#4166FB" d="M537.512,514.517h-98.468v-44.456l98.468-117.047h47.111v119.568h24.418v41.935h-24.418v36.362h-47.111
	V514.517z M537.512,472.582v-61.225l-52.029,61.225H537.512z"/><path fill="#4166FB" d="M625.894,452.809c0-36.979,6.656-62.857,19.972-77.633c13.314-14.774,33.595-22.162,60.846-22.162
	c13.092,0,23.841,1.615,32.247,4.844c8.404,3.231,15.261,7.432,20.569,12.607c5.308,5.175,9.488,10.616,12.541,16.322
	c3.052,5.706,5.507,12.364,7.365,19.973c3.626,14.51,5.441,29.639,5.441,45.385c0,35.3-5.971,61.134-17.915,77.501
	c-11.943,16.368-32.513,24.55-61.708,24.55c-16.369,0-29.594-2.611-39.679-7.83c-10.086-5.219-18.359-12.872-24.816-22.958
	c-4.69-7.166-8.34-16.963-10.948-29.394C627.198,481.585,625.894,467.85,625.894,452.809z M679.507,452.942
	c0,24.772,2.19,41.692,6.569,50.76c4.379,9.069,10.726,13.602,19.043,13.602c5.484,0,10.239-1.924,14.266-5.772
	c4.025-3.849,6.988-9.931,8.891-18.247c1.901-8.315,2.853-21.277,2.853-38.883c0-25.832-2.19-43.196-6.569-52.087
	c-4.379-8.891-10.948-13.337-19.707-13.337c-8.937,0-15.394,4.535-19.375,13.602C681.498,411.65,679.507,428.436,679.507,452.942z"/><path fill="#4166FB" d="M483.241,615.068c0-3.996,1.114-7.108,3.341-9.335c2.226-2.226,5.326-3.34,9.302-3.34
	c4.074,0,7.213,1.094,9.419,3.282c2.204,2.187,3.307,5.252,3.307,9.193c0,2.862-0.482,5.208-1.444,7.04
	c-0.964,1.832-2.355,3.256-4.176,4.276c-1.821,1.018-4.089,1.528-6.805,1.528c-2.761,0-5.046-0.44-6.856-1.32
	c-1.809-0.879-3.276-2.27-4.4-4.175C483.804,620.312,483.241,617.93,483.241,615.068z M490.807,615.102
	c0,2.471,0.458,4.247,1.377,5.327c0.919,1.081,2.168,1.62,3.749,1.62c1.626,0,2.884-0.529,3.775-1.586
	c0.89-1.058,1.335-2.956,1.335-5.695c0-2.305-0.465-3.989-1.394-5.053c-0.929-1.062-2.191-1.594-3.782-1.594
	c-1.526,0-2.75,0.54-3.674,1.62C491.268,610.821,490.807,612.608,490.807,615.102z"/><path fill="#4166FB" d="M511.399,618.475c0-2.706,0.912-4.936,2.739-6.689c1.826-1.754,4.292-2.631,7.398-2.631
	c3.551,0,6.235,1.03,8.049,3.09c1.459,1.658,2.188,3.701,2.188,6.128c0,2.728-0.905,4.964-2.714,6.706
	c-1.809,1.742-4.311,2.614-7.506,2.614c-2.851,0-5.156-0.724-6.915-2.171C512.479,623.731,511.399,621.382,511.399,618.475z
	 M518.213,618.458c0,1.581,0.32,2.75,0.96,3.507c0.639,0.757,1.444,1.136,2.413,1.136c0.98,0,1.784-0.372,2.413-1.119
	c0.628-0.746,0.943-1.943,0.943-3.591c0-1.537-0.317-2.68-0.952-3.432c-0.634-0.751-1.42-1.127-2.354-1.127
	c-0.992,0-1.81,0.382-2.455,1.144C518.535,615.739,518.213,616.899,518.213,618.458z"/><path fill="#4166FB" d="M535.079,634.041v-24.484h6.363v2.622c0.88-1.101,1.687-1.848,2.422-2.237
	c0.991-0.524,2.087-0.785,3.29-0.785c2.373,0,4.207,0.908,5.504,2.723c1.297,1.814,1.946,4.058,1.946,6.731
	c0,2.95-0.708,5.201-2.122,6.755c-1.414,1.553-3.201,2.33-5.361,2.33c-1.046,0-2.001-0.178-2.864-0.535
	c-0.863-0.355-1.634-0.885-2.312-1.586v8.467H535.079z M541.893,618.475c0,1.403,0.295,2.444,0.885,3.122
	c0.59,0.68,1.336,1.019,2.237,1.019c0.79,0,1.453-0.326,1.988-0.977c0.535-0.65,0.801-1.755,0.801-3.314
	c0-1.437-0.278-2.492-0.835-3.165s-1.235-1.01-2.037-1.01c-0.869,0-1.593,0.34-2.172,1.019
	C542.182,615.849,541.893,616.95,541.893,618.475z"/><path fill="#4166FB" d="M556.657,622.366l6.746-0.634c0.279,0.802,0.669,1.376,1.169,1.72c0.502,0.345,1.169,0.519,2.005,0.519
	c0.912,0,1.619-0.195,2.12-0.584c0.39-0.289,0.584-0.65,0.584-1.084c0-0.489-0.256-0.867-0.768-1.133
	c-0.366-0.189-1.341-0.423-2.922-0.701c-2.36-0.412-4-0.793-4.918-1.143c-0.918-0.35-1.693-0.942-2.321-1.776
	c-0.629-0.835-0.944-1.785-0.944-2.853c0-1.168,0.339-2.175,1.019-3.019c0.679-0.846,1.614-1.478,2.805-1.894
	c1.191-0.417,2.789-0.626,4.793-0.626c2.116,0,3.677,0.162,4.685,0.484c1.008,0.323,1.848,0.825,2.521,1.503
	c0.674,0.679,1.233,1.598,1.679,2.756l-6.446,0.634c-0.167-0.568-0.446-0.986-0.836-1.253c-0.534-0.357-1.18-0.535-1.936-0.535
	c-0.768,0-1.328,0.136-1.679,0.409c-0.35,0.272-0.526,0.602-0.526,0.992c0,0.433,0.223,0.761,0.669,0.983
	c0.445,0.223,1.414,0.423,2.906,0.6c2.26,0.256,3.941,0.612,5.043,1.068c1.103,0.456,1.946,1.106,2.531,1.952
	c0.584,0.845,0.877,1.774,0.877,2.786c0,1.024-0.31,2.019-0.927,2.987c-0.618,0.967-1.592,1.737-2.923,2.31
	c-1.33,0.573-3.142,0.859-5.436,0.859c-3.239,0-5.547-0.462-6.922-1.387C557.928,625.384,557.047,624.07,556.657,622.366z"/><path fill="#4166FB" d="M578.769,620.546h7.264v5.596c0,2.059-0.429,3.684-1.286,4.877c-0.857,1.191-2.321,2.242-4.392,3.156
	l-1.586-2.972c1.291-0.601,2.178-1.2,2.663-1.795c0.484-0.596,0.755-1.301,0.81-2.113h-3.473V620.546z"/><path fill="#4166FB" d="M601.965,602.811h12.574c2.739,0,4.791,0.652,6.155,1.953c1.363,1.303,2.046,3.157,2.046,5.561
	c0,2.472-0.744,4.403-2.23,5.795c-1.486,1.393-3.754,2.089-6.805,2.089h-4.142v9.085h-7.598V602.811z M609.564,613.249h1.854
	c1.458,0,2.483-0.253,3.073-0.76c0.59-0.507,0.885-1.156,0.885-1.946c0-0.768-0.257-1.42-0.768-1.955
	c-0.513-0.534-1.475-0.801-2.889-0.801h-2.155V613.249z"/><path fill="#4166FB" d="M631.859,615.303l-6.497-0.685c0.246-1.136,0.599-2.03,1.061-2.681c0.462-0.651,1.127-1.216,1.996-1.695
	c0.623-0.344,1.48-0.612,2.572-0.801c1.09-0.189,2.271-0.284,3.54-0.284c2.037,0,3.674,0.114,4.91,0.343
	c1.236,0.227,2.266,0.704,3.089,1.427c0.579,0.501,1.036,1.211,1.369,2.129c0.334,0.92,0.501,1.796,0.501,2.631v7.833
	c0,0.835,0.053,1.489,0.159,1.962c0.106,0.473,0.337,1.077,0.693,1.812h-6.38c-0.256-0.456-0.423-0.804-0.502-1.044
	c-0.078-0.24-0.155-0.615-0.234-1.127c-0.89,0.857-1.775,1.469-2.655,1.837c-1.202,0.491-2.6,0.735-4.192,0.735
	c-2.116,0-3.721-0.489-4.818-1.469c-1.097-0.98-1.645-2.188-1.645-3.624c0-1.347,0.395-2.456,1.185-3.324
	c0.791-0.868,2.25-1.514,4.376-1.937c2.55-0.511,4.203-0.87,4.96-1.077c0.756-0.207,1.558-0.476,2.405-0.81
	c0-0.835-0.173-1.42-0.518-1.754c-0.345-0.333-0.953-0.5-1.821-0.5c-1.114,0-1.948,0.178-2.505,0.535
	C632.478,614.011,632.127,614.534,631.859,615.303z M637.755,618.876c-0.935,0.334-1.91,0.629-2.923,0.885
	c-1.38,0.368-2.254,0.729-2.622,1.085c-0.379,0.368-0.567,0.786-0.567,1.253c0,0.535,0.186,0.971,0.559,1.31
	c0.372,0.341,0.921,0.51,1.645,0.51c0.757,0,1.462-0.184,2.112-0.552c0.652-0.366,1.114-0.815,1.387-1.344
	c0.273-0.529,0.409-1.217,0.409-2.063V618.876z"/><path fill="#4166FB" d="M661.37,609.557h6.363v16.75l0.016,0.786c0,1.114-0.236,2.173-0.709,3.181
	c-0.473,1.008-1.103,1.823-1.887,2.446c-0.786,0.623-1.781,1.075-2.99,1.353c-1.208,0.278-2.591,0.417-4.15,0.417
	c-3.563,0-6.01-0.534-7.34-1.603c-1.33-1.068-1.995-2.499-1.995-4.291c0-0.224,0.011-0.524,0.033-0.902l6.596,0.751
	c0.167,0.612,0.423,1.036,0.768,1.27c0.502,0.345,1.13,0.517,1.887,0.517c0.98,0,1.712-0.262,2.197-0.784
	c0.484-0.524,0.726-1.437,0.726-2.739v-2.69c-0.669,0.791-1.336,1.365-2.005,1.721c-1.046,0.557-2.176,0.835-3.389,0.835
	c-2.373,0-4.287-1.035-5.746-3.106c-1.035-1.47-1.553-3.412-1.553-5.828c0-2.761,0.667-4.866,2.004-6.314
	c1.336-1.447,3.084-2.171,5.244-2.171c1.38,0,2.519,0.234,3.415,0.702c0.896,0.467,1.734,1.242,2.514,2.321V609.557z
	 M654.973,618.158c0,1.28,0.273,2.229,0.819,2.847c0.546,0.618,1.264,0.927,2.155,0.927c0.846,0,1.555-0.32,2.129-0.96
	c0.573-0.641,0.859-1.606,0.859-2.898s-0.3-2.28-0.901-2.965c-0.601-0.685-1.336-1.027-2.204-1.027c-0.869,0-1.562,0.315-2.08,0.944
	C655.232,615.655,654.973,616.699,654.973,618.158z"/><path fill="#4166FB" d="M691.529,620.112h-13.627c0.122,1.092,0.417,1.904,0.885,2.439c0.656,0.768,1.513,1.152,2.572,1.152
	c0.667,0,1.302-0.167,1.903-0.5c0.367-0.211,0.763-0.585,1.186-1.12l6.697,0.618c-1.025,1.781-2.261,3.058-3.708,3.833
	c-1.448,0.773-3.524,1.161-6.23,1.161c-2.349,0-4.197-0.332-5.544-0.993c-1.347-0.663-2.463-1.715-3.349-3.157
	c-0.885-1.442-1.328-3.137-1.328-5.086c0-2.772,0.888-5.016,2.664-6.73c1.776-1.714,4.228-2.572,7.356-2.572
	c2.539,0,4.543,0.385,6.012,1.153c1.47,0.768,2.589,1.881,3.357,3.34c0.768,1.458,1.152,3.356,1.152,5.694V620.112z
	 M684.616,616.855c-0.134-1.313-0.487-2.254-1.061-2.822c-0.573-0.568-1.328-0.852-2.263-0.852c-1.079,0-1.942,0.429-2.588,1.286
	c-0.413,0.535-0.674,1.331-0.786,2.389H684.616z"/><path fill="#4166FB" d="M706.561,602.811h7.063l9.219,13.544v-13.544h7.131v24.483h-7.131l-9.168-13.442v13.442h-7.114V602.811z"/><path fill="#4166FB" d="M733.717,618.475c0-2.706,0.912-4.936,2.739-6.689c1.826-1.754,4.292-2.631,7.398-2.631
	c3.551,0,6.235,1.03,8.049,3.09c1.459,1.658,2.188,3.701,2.188,6.128c0,2.728-0.905,4.964-2.714,6.706
	c-1.809,1.742-4.311,2.614-7.506,2.614c-2.851,0-5.156-0.724-6.915-2.171C734.796,623.731,733.717,621.382,733.717,618.475z
	 M740.531,618.458c0,1.581,0.32,2.75,0.96,3.507c0.639,0.757,1.444,1.136,2.413,1.136c0.98,0,1.784-0.372,2.413-1.119
	c0.628-0.746,0.943-1.943,0.943-3.591c0-1.537-0.317-2.68-0.952-3.432c-0.634-0.751-1.42-1.127-2.354-1.127
	c-0.992,0-1.81,0.382-2.455,1.144C740.853,615.739,740.531,616.899,740.531,618.458z"/><path fill="#4166FB" d="M765.563,602.811v6.746h3.742v4.977h-3.742v6.283c0,0.756,0.073,1.256,0.218,1.5
	c0.223,0.379,0.612,0.567,1.169,0.567c0.501,0,1.202-0.144,2.104-0.433l0.5,4.692c-1.68,0.368-3.25,0.551-4.709,0.551
	c-1.693,0-2.939-0.216-3.741-0.65c-0.801-0.434-1.394-1.093-1.779-1.977c-0.383-0.884-0.575-2.316-0.575-4.295v-6.237h-2.505v-4.977
	h2.505v-3.256L765.563,602.811z"/><path fill="#4166FB" d="M784.435,602.811h18.705v5.26h-11.107v4.275h9.487v4.943h-9.487v10.004h-7.598V602.811z"/><path fill="#4166FB" d="M804.76,618.475c0-2.706,0.912-4.936,2.739-6.689c1.826-1.754,4.292-2.631,7.398-2.631
	c3.551,0,6.235,1.03,8.049,3.09c1.459,1.658,2.188,3.701,2.188,6.128c0,2.728-0.905,4.964-2.714,6.706
	c-1.81,1.742-4.311,2.614-7.506,2.614c-2.851,0-5.156-0.724-6.915-2.171C805.839,623.731,804.76,621.382,804.76,618.475z
	 M811.574,618.458c0,1.581,0.32,2.75,0.96,3.507c0.639,0.757,1.444,1.136,2.413,1.136c0.98,0,1.784-0.372,2.413-1.119
	c0.628-0.746,0.943-1.943,0.943-3.591c0-1.537-0.317-2.68-0.951-3.432c-0.634-0.751-1.42-1.127-2.354-1.127
	c-0.992,0-1.81,0.382-2.455,1.144C811.896,615.739,811.574,616.899,811.574,618.458z"/><path fill="#4166FB" d="M847.095,627.293h-6.346v-2.873c-0.947,1.18-1.902,2.021-2.864,2.523c-0.964,0.5-2.146,0.751-3.549,0.751
	c-1.871,0-3.337-0.559-4.401-1.678c-1.063-1.12-1.594-2.842-1.594-5.169v-11.29h6.83v9.753c0,1.114,0.207,1.904,0.618,2.371
	c0.412,0.468,0.991,0.702,1.737,0.702c0.812,0,1.478-0.312,1.995-0.935c0.518-0.623,0.777-1.742,0.777-3.357v-8.534h6.797V627.293z"/><path fill="#4166FB" d="M851.22,609.557h6.33v2.89c0.947-1.18,1.904-2.023,2.873-2.531c0.969-0.506,2.148-0.76,3.54-0.76
	c1.881,0,3.354,0.559,4.417,1.679c1.063,1.119,1.594,2.847,1.594,5.185v11.273h-6.83v-9.753c0-1.113-0.206-1.901-0.618-2.363
	c-0.412-0.462-0.991-0.693-1.737-0.693c-0.824,0-1.491,0.312-2.004,0.936c-0.511,0.623-0.768,1.742-0.768,3.356v8.518h-6.797
	V609.557z"/><path fill="#4166FB" d="M892.704,602.811v24.483h-6.363v-2.622c-0.89,1.114-1.703,1.865-2.438,2.255
	c-0.98,0.513-2.071,0.768-3.274,0.768c-2.415,0-4.261-0.918-5.535-2.756c-1.275-1.836-1.913-4.069-1.913-6.696
	c0-2.939,0.704-5.189,2.113-6.748c1.408-1.559,3.197-2.338,5.368-2.338c1.058,0,2.019,0.178,2.881,0.535
	c0.863,0.356,1.628,0.891,2.296,1.603v-8.483H892.704z M885.891,618.375c0-1.392-0.295-2.429-0.885-3.114
	c-0.591-0.685-1.336-1.028-2.239-1.028c-0.79,0-1.453,0.328-1.987,0.986c-0.535,0.656-0.803,1.759-0.803,3.307
	c0,1.447,0.277,2.508,0.827,3.181c0.551,0.674,1.233,1.01,2.045,1.01c0.869,0,1.592-0.341,2.171-1.019
	C885.601,621.02,885.891,619.911,885.891,618.375z"/><path fill="#4166FB" d="M896.863,620.479h7.264v6.814h-7.264V620.479z"/><path fill="#4166FB" d="M908.253,620.479h7.264v6.814h-7.264V620.479z"/><path fill="#4166FB" d="M919.643,620.479h7.264v6.814h-7.264V620.479z"/><path fill="#F7C1CE" d="M1010.361,580.069c0,0-16.062-10.899-19.414-15.364c-4.042-5.385-6.731-21.233-6.731-21.233
	c-3.924-1.971-6.142-6.049-4.934-10.244c0.807-2.8,3.916,4.458,6.239,4.949c0,0,0.838-6.216,2.172-4.234
	c1.524,2.263,0.81,7.845,0.81,7.845l9.804,16.488l19.343,12.703L1010.361,580.069z"/><path fill="#4166FB" d="M943.55,523.241h-98.468v-44.456l98.468-117.047h47.111v119.568h24.418v41.935h-24.418v36.362H943.55
	V523.241z M943.55,481.306v-61.225l-52.029,61.225H943.55z"/><path fill="#F7C1CE" d="M1014.368,541.215c-2.163,2.19-7.825,8.716-6.717,13.92c1.108,5.203,7.804,6.412,7.804,6.412l7.453-13.138
	L1014.368,541.215z"/><path fill="#F7C1CE" d="M1075.22,697.385c-0.335-3.491-1.379-7.448-2.289-10.65c-7.158,2.31-13.67,5.058-20.917,6.422
	c-7.93,1.492-18.821,4.827-24.532-1.683c-12.288-14.007-18.526-33.304-21.636-51.454c5.444-2.999,10.887-5.9,16.364-8.804
	c23.921,17.56,12.208,27.786,17.143,51.157c5.727,0.544,10.698,0.787,16.626,0.187c5.214-0.528,11.522-1.2,16.949-1.454
	c1.489-0.737,2.51-0.358,4.042-0.12C1078.044,685.354,1080.603,695.138,1075.22,697.385z"/><path fill="#1F1C80" d="M1073.525,680.714c2.166-0.494,4.362-0.191,6.464,0.236c0.366,0.074,0.338,0.194,0.321,0.508
	c-0.056,1.051-0.222,2.28-0.335,3.36c-0.023,0.223-0.018,0.233-0.257,0.364c-0.672,0.369-0.696,1.017-0.496,1.976
	c0.579,2.781-0.184,8.763-0.937,10.858c-2.609,7.265-3.742-2.446-3.805-5.364C1078.508,688.083,1076.798,684.97,1073.525,680.714z"/><path fill="#F7C1CE" d="M1023.38,729.994c0.739,4.049,0.016,4.024-1.75,6.168c-6.127,0.614-11.648,0.648-14.333-2.021
	c4.211-1.302,8.35-2.622,10.61-4.423c-0.186-9.093-2.183-17.913-5.086-26.72c-1.563-4.764-3.386-9.527-5.334-14.328
	c-1.03-2.518-1.7-5.185-1.935-7.902c-1.836-20.592-1.017-41.557,2.183-61.132h17.653c9.614,21.089-7.828,36.533-6.252,65.846
	c1.972,5.88,3.436,11.723,4.329,17.516C1024.793,711.669,1024.819,721.508,1023.38,729.994z"/><path fill="#1F1C80" d="M1023.555,731.07c0.918,3.682,0.391,5.81-0.431,7.855l-4.246-0.003c0,0-0.702-1.74-1.616-1.391
	c-4.193,1.604-12.22,2.543-13.511,0.479c-1.145-1.829,5.243-4.398,5.243-4.398C1010.907,736.735,1015.583,735.337,1023.555,731.07z"/><path fill="#1F1C80" d="M1055.125,670.624c0,0-4.967,5.488-9.635,4.353c0,0-5.171,7.836-13.294,2.424
	c-6.156,3.808-12.303,3.808-18.459,0c-8.116,5.412-13.295-2.424-13.295-2.424c-4.668,1.136-9.634-4.353-9.634-4.353
	c4.457-20.976,14.732-36.899,15.5-53.13l26.317,0.439C1039.536,624.811,1040.928,653.152,1055.125,670.624z"/><path fill="#F7C1CE" d="M1001.037,573.684l-2.44,15.47c0,0-1.184-0.827-3.03-2.194l4.579-14.021
	C1000.442,573.186,1000.74,573.433,1001.037,573.684z"/><path fill="#3E3279" d="M1033.865,619.637c-6.579-22.837-2.851-33.775-14.987-46.195c-2.638,3.068-6.668,3.276-17.841,0.239
	l-2.443,15.469c5.212,7.99,11.784,12.417,9.138,30.486H1033.865z"/><path fill="#5D4FFF" d="M1034.731,621.523c-10.474,1.549-19.08-2.098-25.757-1.38c-0.704,0.078-1.389,0.201-2.056,0.388
	c-1.389,0.37-2.829-0.695-2.582-2.111c2.235-12.49,0.608-18.632-2.367-22.663l-0.027-0.028c-1.997-2.701-4.625-4.465-7.093-6.572
	l0.717-2.198l4.579-14.021l0.21-0.64c14.304,6.622,14.935-1.143,17.576-4.218c5.15,5.274,8.176,11.512,10.447,18.696
	c2.107,6.672,3.569,14.153,5.493,22.439c0.745,3.153,1.549,6.412,2.482,9.798C1036.664,620.17,1035.906,621.349,1034.731,621.523z"/><polygon fill="#F7C1CE" points="1017.931 568.085 1016.538 561.826 1009.702 559.587 1008.065 571.354"/><path fill="#4536EB" d="M1010.106,610.142l-1.13,10.003c-0.707,0.074-1.389,0.199-2.059,0.385c-1.389,0.372-2.828-0.695-2.58-2.109
	c2.233-12.492,0.608-18.632-2.369-22.664l3.706,3.16C1008.924,601.689,1010.586,605.896,1010.106,610.142z"/><path fill="#4536EB" d="M1033.873,609.216c-1.836,0.608-4.057,0.506-5.148,0.357c-3.957-0.534-7.595-5.422-8.916-8.064
	c-1.744-3.489-11.63-1.822-12.026-9.738l20.594-4.996C1030.486,593.449,1031.95,600.929,1033.873,609.216z"/><path fill="#1F1C80" d="M1043.411,578.203c-0.624-2.222-1.664-4.317-2.207-6.56c-0.899-3.715-0.392-7.644-1.137-11.392
	c-0.745-3.749-4.621-6.558-7.503-9.068c-2.169-1.889,0.037-5.96-3.151-11.066c-1.19-1.906-5.535-3.521-8.41-3.171
	c-2.875,0.35-5.507,2.284-6.699,4.924c-1.142,2.528-0.345,8.235-1.306,10.836c-1.296,3.508-5.167,3.394-5.941,7.053
	c-1.114,5.267,3.221,10.224,3.381,15.605c0.107,3.605-1.661,6.964-2.549,10.459c-0.887,3.495-0.536,7.887,2.547,9.758
	c2.473,1.5,5.796,0.792,8.34,2.169c2.978,1.612,3.958,5.518,6.666,7.553c3.431,2.577,9.194,0.696,10.444-3.409
	c1.034-3.395-0.671-7.345,0.957-10.498c1.381-2.674,4.724-3.843,6.214-6.458C1044.2,582.93,1044.034,580.425,1043.411,578.203z"/><path fill="#F7C1CE" d="M1000.145,572.939l-4.579,14.021c-6.115-4.519-19.505-14.912-21.465-20.629
	c-3.35-9.738-2.13-35.436-2.13-35.436c-2.587-3.199-4.99-9.478-2.289-13.582c2.632-4.012,3.194,4.533,6.219,7.093
	c0,0,4.268-6.046,3.487-1.161c-0.777,4.885-2.5,7.5-2.5,7.5c3.419,8.688,4.748,18.061,6.238,28.485
	C988.976,563.744,994.638,568.314,1000.145,572.939z"/><path fill="#373499" d="M937.76,918.612h47.205l4.123-18.991l0.46-2.111l4.303-19.851l0.46-2.111l4.31-19.857l0.46-2.111
	l4.309-19.857l0.46-2.111l4.309-19.851l0.454-2.112l4.036-18.595l0.46-2.111l4.583-21.118l0.46-2.111l5.039-23.219h25.878
	l5.039,23.219l0.46,2.111l4.583,21.118l0.46,2.111l4.036,18.595l0.454,2.112l4.31,19.851l0.46,2.111l4.31,19.857l0.46,2.111
	l4.309,19.857l0.46,2.111l4.303,19.851l0.46,2.111l4.123,18.991h47.205l-4.185-18.991l-0.466-2.111l-4.372-19.851l-0.466-2.111
	l-4.378-19.857l-0.466-2.111l-4.372-19.857l-0.466-2.111l-4.378-19.851l-0.46-2.112l-4.098-18.595l-0.466-2.111l-4.658-21.118
	l-0.46-2.111l-5.119-23.219h1.484v-3.299H975.37v3.299h1.201l-5.119,23.219l-0.46,2.111l-4.658,21.118l-0.466,2.111l-4.098,18.595
	l-0.46,2.112l-4.378,19.851l-0.466,2.111l-4.372,19.857l-0.466,2.111l-4.378,19.857l-0.466,2.111l-4.371,19.851l-0.466,2.111
	L937.76,918.612z M1085.707,899.621h42.087l3.719,16.88h-42.143L1085.707,899.621z M1080.937,877.659h42.013l4.378,19.851h-42.081
	L1080.937,877.659z M1076.167,855.691h41.944l4.378,19.857h-42.013L1076.167,855.691z M1071.398,833.723h41.87l4.378,19.857h-41.932
	L1071.398,833.723z M1066.634,811.76h41.795l4.371,19.851h-41.857L1066.634,811.76z M1062.138,791.054h41.727l4.098,18.595h-41.789
	L1062.138,791.054z M1057.095,767.825h41.652l4.651,21.118h-41.72L1057.095,767.825z M1051.598,742.494h41.565l5.118,23.219h-41.646
	L1051.598,742.494z M1015.63,765.713h-41.646l5.118-23.219h41.565L1015.63,765.713z M1010.586,788.943h-41.72l4.652-21.118h41.652
	L1010.586,788.943z M1006.09,809.649h-41.789l4.098-18.595h41.727L1006.09,809.649z M1001.32,831.612h-41.857l4.372-19.851h41.795
	L1001.32,831.612z M996.551,853.58h-41.932l4.378-19.857h41.87L996.551,853.58z M991.787,875.548h-42.013l4.378-19.857h41.944
	L991.787,875.548z M987.018,897.51h-42.081l4.378-19.851h42.013L987.018,897.51z M982.895,916.501h-42.143l3.719-16.88h42.087
	L982.895,916.501z"/><path fill="#F9CBCB" d="M223.529,793.275c-5.44,0.647-9.122-0.996-12.937-4.054c-5.395,1.165-9.019,2.368-15.089,1.411
	c-6.47-1.019-14.634-1.866-21.053-5.744c-7.246-4.377-14.401-11.416-21.051-16.986c-3.763-8.03-5.355-14.705,4.943-16.26
	c9.455,6.364,15.347,15.407,22.781,23.83c5.963,1.321,11.006,3.758,17.047,5.443c4.137,1.154,9.459,1.769,13.806,2.8
	c2.51-0.947,5.043-1.641,7.704-0.849c2.661,0.791,0.853,2.712-0.97,3.619C220.646,788.341,228.121,792.73,223.529,793.275z"/><path fill="#7D81FF" d="M198.073,780.915c-0.799,3.29-1.526,6.525-2.365,9.851c-6.929-1.463-15.021-1.904-21.145-5.839
	c-6.912-4.441-15.818-11.351-20.726-17.021c-8.359-9.654,1.561-19.907,11.499-19.682c9.245,7.214,9.304,18.222,15.801,27.246
	C186.962,776.656,192.549,778.74,198.073,780.915z"/><rect width="7.662" height="143.584" x="366.311" y="763.971" fill="#95A3CC" transform="rotate(-180 370.142 835.763)"/><rect width="7.662" height="143.584" x="236.775" y="763.971" fill="#95A3CC" transform="rotate(-180 240.606 835.763)"/><path fill="#FF6EE0" d="M209.977,782.79v24.599c0,1.185,1.208,2.146,2.699,2.146h182.836c1.491,0,2.699-0.961,2.699-2.146V782.79
	c0-1.185-1.208-2.146-2.699-2.146H212.676C211.185,780.643,209.977,781.604,209.977,782.79z"/><polygon fill="#FFF" points="379.581 782.674 396.113 801.231 396.113 791.088 388.599 782.674"/><polygon fill="#FFF" points="356.83 782.674 378.807 807.504 388 807.504 365.963 782.674"/><polygon fill="#FFF" points="333.774 782.674 355.608 807.504 364.924 807.504 343.032 782.674"/><polygon fill="#FFF" points="310.411 782.674 332.1 807.504 341.539 807.504 319.795 782.674"/><polygon fill="#FFF" points="286.736 782.674 308.275 807.504 317.843 807.504 296.243 782.674"/><polygon fill="#FFF" points="262.733 782.674 284.13 807.504 293.829 807.504 272.372 782.674"/><polygon fill="#FFF" points="238.408 782.674 259.66 807.504 269.487 807.504 248.178 782.674"/><polygon fill="#FFF" points="216.193 782.674 238.315 807.504 247.387 807.504 225.209 782.674"/><polygon fill="#FFF" points="212.075 793.378 212.075 803.728 215.416 807.504 224.612 807.504"/><path fill="#FF6EE0" d="M209.977,829.332v24.6c0,1.185,1.208,2.146,2.699,2.146h182.836c1.491,0,2.699-0.961,2.699-2.146v-24.6
	c0-1.185-1.208-2.146-2.699-2.146H212.676C211.185,827.186,209.977,828.147,209.977,829.332z"/><polygon fill="#FFF" points="379.581 829.217 396.113 847.774 396.113 837.63 388.599 829.217"/><polygon fill="#FFF" points="356.83 829.217 378.807 854.047 388 854.047 365.963 829.217"/><polygon fill="#FFF" points="333.774 829.217 355.608 854.047 364.924 854.047 343.032 829.217"/><polygon fill="#FFF" points="310.411 829.217 332.1 854.047 341.539 854.047 319.795 829.217"/><polygon fill="#FFF" points="286.736 829.217 308.275 854.047 317.843 854.047 296.243 829.217"/><polygon fill="#FFF" points="262.733 829.217 284.13 854.047 293.829 854.047 272.372 829.217"/><polygon fill="#FFF" points="238.408 829.217 259.66 854.047 269.487 854.047 248.178 829.217"/><polygon fill="#FFF" points="216.193 829.217 238.315 854.047 247.387 854.047 225.209 829.217"/><polygon fill="#FFF" points="212.075 839.92 212.075 850.27 215.416 854.047 224.612 854.047"/><rect width="132.462" height="9.054" x="239.738" y="865.341" fill="#95A3CC" transform="rotate(-180 305.97 869.868)"/><circle cx="370.779" cy="760.692" r="10.068" fill="#FF6EE0"/><path fill="#FFE48E" d="M377.568,760.692c0-3.749-3.039-6.789-6.789-6.789c-3.749,0-6.789,3.039-6.789,6.789
	c0,3.749,3.04,6.789,6.789,6.789C374.529,767.481,377.568,764.441,377.568,760.692z"/><circle cx="240.606" cy="760.692" r="10.068" fill="#FF6EE0"/><path fill="#FFE48E" d="M247.394,760.692c0-3.749-3.04-6.789-6.789-6.789c-3.749,0-6.789,3.039-6.789,6.789
	c0,3.749,3.039,6.789,6.789,6.789C244.355,767.481,247.394,764.441,247.394,760.692z"/><path fill="#95A3CC" d="M367.351,907.555h5.69c2.569,0,4.651,2.083,4.651,4.652v4.104h-14.993v-4.104
	C362.699,909.638,364.782,907.555,367.351,907.555z"/><path fill="#95A3CC" d="M237.76,907.555h5.69c2.569,0,4.651,2.083,4.651,4.652v4.104h-14.993v-4.104
	C233.109,909.638,235.191,907.555,237.76,907.555z"/><path fill="#45359E" d="M179.425,724.436c-0.297-0.383-0.721-0.721-0.901-1.153c-0.18-0.433-0.045-0.75-0.243-1.169
	c-0.599-1.27-1.962-1.656-3.274-1.941c-2.108-0.458-4.258-0.859-6.278,0.052c-0.844,0.381-1.362,0.987-2.304,0.994
	c-0.433,0.003-0.823-0.222-1.218-0.299c-3.233-0.636-6.46,0.389-7.183,3.901c-0.208,1.013,0.248,1.468-0.06,2.606
	c-0.643,2.376-3.422,3.831-1.372,6.665c2.05,2.834,4.744,4.726,8.612,5.075c4.468,0.403,8.659-3.711,11.614-6.883
	c1.713-0.562,3.165-1.384,3.751-3.156C181.154,727.356,180.507,725.831,179.425,724.436z"/><path fill="#F9CBCB" d="M177.807,868.082c-4.582,13.184-10.448,25.786-16.502,38.193c6.317,4.115,12.718,8.237,19.074,12.326
	c-8.975,0.233-17.982,0.051-26.938,0.543c0.414-6.727,1.424-5.514,1.703-14.108c0.28-8.594,0.779-26.6,3.375-36.834
	c1.716-6.764,3.62-12.711,6.89-18.57c-17.747-8.711-27.255-21.257-29.19-42.126c-0.096-1.038,0.112-2.375,0.107-3.449
	c7.674,0.5,15.243,1.033,22.965,1.466c9.276,12.469,20.356,25.241,23.209,41.45C183.659,853.563,179.967,861.867,177.807,868.082z"/><path fill="#45359E" d="M176.361,872.181c-3.335-0.592-7.54-1.723-10.52-2.405c-2.98-0.682-4.597-1.092-7.319-1.723
	c1.644-6.47,3.669-12.648,6.887-18.384c-8.138-3.994-14.735-7.966-20.598-15.823c-5.459-7.316-8.257-16.609-8.593-26.324
	c-0.035-1.002,0.066-2.436,0.112-3.459c7.663,0.475,15.248,1.064,22.957,1.435c9.342,12.876,20.273,24.684,23.236,41.717
	C183.726,854.138,178.811,865.311,176.361,872.181z"/><path fill="#37288F" d="M172.188,848.497c-3.877,6.548-6.147,13.448-6.484,21.249c-2.391-0.567-4.773-1.123-7.159-1.689
	c1.59-6.502,3.665-12.608,6.859-18.425c-8.379-3.301-16.05-7.024-20.553-15.572c-0.011-0.021-0.027-0.067-0.015-0.087
	c2.264-3.943,4.357-7.981,6.534-11.978c4.23,10.696,10.199,17.946,20.05,23.085C172.663,845.73,172.952,847.208,172.188,848.497z"/><path fill="#F9CBCB" d="M140.282,871.643c-3.739,5.379-7.363,5.592-10.882,7.719c-9.806,5.927-18.923,8.163-28.875,12.581
	c-1.182-1.919-2.414-3.658-3.627-5.504c6.682-8.153,13.583-15.476,21.901-21.806c2.849-2.168,6.117-4.037,9.182-5.9
	c-1.694-19.548-2.104-36.264,4.543-54.959c3.322,0.204,7.368,0.528,10.517,0.734c3.149,0.206,5.399,0.372,8.378,0.503
	c0.457,1.501,0.733,1.512,0.877,3.474C153.714,827.836,150.918,856.339,140.282,871.643z"/><path fill="#45359E" d="M140.261,871.739c-3.967,5.886-6.801,4.087-11.034,8.027c-2.012-3.249-5.478-8.064-7.236-10.598
	c-1.759-2.534-1.813-2.53-3.246-4.584c3.042-2.039,6.079-4.034,9.244-5.847c-1.722-19.556-2.081-36.263,4.514-54.964
	c2.006,0.127,3.75,0.263,5.776,0.393c2.027,0.13,2.52,0.219,5.1,0.36c2.58,0.141,7.607,0.208,10.621,0.457
	C155.214,826.038,151.549,854.992,140.261,871.739z"/><path fill="#37288F" d="M132.261,838.253c-0.437,8.705,0.134,15.684,1.137,23.972c-3.829,2.172-7.7,4.518-11.583,6.684
	c-1.015-1.425-2.027-2.855-3.041-4.281c2.978-2.134,6.069-4.05,9.215-5.891c-1.716-19.553-2.088-36.263,4.522-54.963
	c1.922,0.126,3.843,0.264,5.766,0.392c0.524,0.296,1.076,0.526,1.587,0.858C135.137,815.175,132.808,827.347,132.261,838.253z"/><path fill="#5D4FFF" d="M172.836,762.737c0.907,15.337-7.983,26.715-9.115,41.861c-0.069,0.925-1.171,2.116-2.343,2.38
	c-6.459,1.456-12.786,2.127-19.367,1.019c-3.381-0.569-6.67-1.174-9.849-2.588c-1.56-0.694-2.687-1.34-2.215-3.942
	c1.474-8.117,3.973-18.645,6.111-26.835c1.165-4.463,4.009-13.288,5.221-15.775c4.203-8.625,8.049-14.938,16.892-16.379
	c1.779,2.644,4.72,3.348,7.597,4.356C168.535,751.529,172.512,757.27,172.836,762.737z"/><path fill="#5D4FFF" d="M141.993,808.062c-3.3-0.873-6.691-1.09-9.832-2.653c-1.541-0.767-2.706-1.262-2.213-3.943
	c1.538-8.362,3.877-18.282,6.119-26.901C134.809,786.088,132.984,799.231,141.993,808.062z"/><path fill="#37288F" d="M155.219,906.046c-2.175,4.149-2.264,8.303-1.791,12.934c8.986-0.122,17.953,0.534,26.942,0.413
	c-1.934-9.506-10.637-9.478-18.056-12.555c-0.566-0.235-1.318-0.378-2.082-0.009C158.346,907.736,156.798,907.674,155.219,906.046z"/><path fill="#37288F" d="M97.961,885.402c-3.916,1.029-6.176,3.789-8.303,7.274c6.363,7.515,12.679,15.065,19.013,22.612
	c3.925-8.641-2.862-15.569-6.173-23.435c-0.252-0.6-0.694-1.333-1.455-1.74C99.166,889.114,98.165,887.723,97.961,885.402z"/><path fill="#F9CBCB" d="M177.686,730.36c-1.639,4.416-2.289,10.543-7.913,12.006c-3.56,0.926-7.768-4.528-6.785-8.386
	c-0.722-1.989-0.811-4.752,1.537-5.414c1.674-0.472,1.491,3.059,3.498,2.917c0.762-0.053,1.135-4.846,3.42-4.402
	C173.728,727.524,175.23,729.955,177.686,730.36z"/><path fill="#F9CBCB" d="M165.727,746.811c0.563-1.976,1.13-3.949,1.695-5.924c-1.052-1.414-2.091-2.838-3.141-4.253
	c-2.043,1.968-4.085,3.938-6.132,5.902C160.174,745.189,162.486,746.312,165.727,746.811z"/><path fill="#F9CBCB" d="M193.692,794.286c-0.574,2.945-1.143,5.897-1.716,8.842c4.373,0.673,8.81,1.194,13.181,1.659
	c3.522,3.787,7.176,6.411,12.923,5.778c4.837-0.532-2.867-6.412-4.732-8.397c1.836-0.904,3.651-2.793,1.007-3.617
	c-2.644-0.825-5.212-0.151-7.696,0.761C202.284,797.79,197.983,796.046,193.692,794.286z"/><path fill="#7D81FF" d="M152.512,778.394c3.299,5.187,9.037,14.157,16.168,18.139c6.31,3.523,15.695,6.297,23.178,7.563
	c0.906-3.24,1.625-6.56,2.436-9.836c-5.261-2.798-11.035-5.877-16.456-7.586c-8.848-8.885-5.097-15.618-16.224-26.835
	C152.075,750.22,144.808,766.279,152.512,778.394z"/><path fill="#FF6EE0" d="M474.908,914.731h-32.447l0.776-2.223l0.418-1.198l1.41-4.036l0.826-2.373l1.41-4.036l1.425-4.085
	l0.482-1.382l3.948-11.318l0.773-2.214l1.124-3.222c1.201-3.441,6.061-3.441,7.262,0l1.124,3.222l0.773,2.214l3.948,11.318
	l0.482,1.382l1.425,4.085l1.41,4.036l0.828,2.373l1.408,4.036l0.418,1.198L474.908,914.731z"/><polygon fill="#FFF" points="470.284 911.31 443.655 911.31 445.065 907.274 468.876 907.274"/><polygon fill="#FFF" points="468.048 904.901 445.891 904.901 447.301 900.865 466.638 900.865"/><polygon fill="#FFF" points="464.731 895.398 449.208 895.398 453.157 884.08 460.782 884.08"/><polygon fill="#F0F0F0" points="471.478 904.901 468.048 904.901 466.638 900.865 470.068 900.865"/><polygon fill="#F0F0F0" points="468.161 895.398 464.731 895.398 460.782 884.08 464.213 884.08"/><path fill="#EB57CB" d="M463.44,881.866l0.773,2.214h-3.43l-0.773-2.214l-1.124-3.222c-0.368-1.051-1.076-1.778-1.916-2.187
	c1.913-0.931,4.511-0.202,5.346,2.187L463.44,881.866z"/><polygon fill="#EB57CB" points="470.068 900.865 466.638 900.865 465.213 896.779 464.731 895.398 468.161 895.398 468.643 896.779"/><polygon fill="#F0F0F0" points="473.714 911.31 470.284 911.31 468.876 907.274 472.306 907.274"/><polygon fill="#EB57CB" points="472.306 907.274 468.876 907.274 468.048 904.901 471.478 904.901"/><polygon fill="#EB57CB" points="474.908 914.731 471.478 914.731 470.284 911.31 473.714 911.31"/><polygon fill="#EB57CB" points="474.908 914.731 442.461 914.731 443.237 912.509 474.133 912.509"/><path fill="#FF6EE0" d="M476.399,917.888H440.97c-1.593,0-2.884-0.941-2.884-2.102l0,0c0-1.161,1.291-2.102,2.884-2.102h35.428
	c1.593,0,2.884,0.941,2.884,2.102l0,0C479.283,916.947,477.991,917.888,476.399,917.888z"/><path fill="#EB57CB" d="M478.652,914.475c0.004,0.045,0.009,0.09,0.009,0.136c0,1.161-1.291,2.102-2.884,2.102h-35.428
	c-0.913,0-1.725-0.31-2.253-0.792c0.096,1.098,1.345,1.967,2.874,1.967h35.428c1.593,0,2.884-0.941,2.884-2.102
	C479.283,915.29,479.046,914.835,478.652,914.475z"/><path fill="#FF6EE0" d="M1200.376,915.626h-32.447l0.776-2.223l0.418-1.198l1.41-4.036l0.826-2.373l1.41-4.036l1.425-4.085
	l0.482-1.382l3.948-11.318l0.773-2.214l1.124-3.222c1.202-3.441,6.061-3.441,7.262,0l1.124,3.222l0.773,2.214l3.948,11.318
	l0.482,1.382l1.425,4.085l1.41,4.036l0.828,2.373l1.408,4.036l0.418,1.198L1200.376,915.626z"/><polygon fill="#FFF" points="1195.752 912.205 1169.123 912.205 1170.533 908.168 1194.344 908.168"/><polygon fill="#FFF" points="1193.516 905.795 1171.359 905.795 1172.769 901.759 1192.106 901.759"/><polygon fill="#FFF" points="1190.199 896.292 1174.676 896.292 1178.625 884.974 1186.25 884.974"/><polygon fill="#F0F0F0" points="1196.946 905.795 1193.516 905.795 1192.106 901.759 1195.536 901.759"/><polygon fill="#F0F0F0" points="1193.629 896.292 1190.199 896.292 1186.25 884.974 1189.681 884.974"/><path fill="#EB57CB" d="M1188.908,882.76l0.773,2.214h-3.43l-0.773-2.214l-1.124-3.222c-0.368-1.051-1.077-1.778-1.916-2.187
	c1.913-0.931,4.511-0.202,5.346,2.187L1188.908,882.76z"/><polygon fill="#EB57CB" points="1195.536 901.759 1192.106 901.759 1190.681 897.674 1190.199 896.292 1193.629 896.292 1194.111 897.674"/><polygon fill="#F0F0F0" points="1199.182 912.205 1195.752 912.205 1194.344 908.168 1197.774 908.168"/><polygon fill="#EB57CB" points="1197.774 908.168 1194.344 908.168 1193.516 905.795 1196.946 905.795"/><polygon fill="#EB57CB" points="1200.376 915.626 1196.946 915.626 1195.752 912.205 1199.182 912.205"/><polygon fill="#EB57CB" points="1200.376 915.626 1167.929 915.626 1168.705 913.403 1199.601 913.403"/><path fill="#FF6EE0" d="M1201.867,918.783h-35.428c-1.593,0-2.884-0.941-2.884-2.102l0,0c0-1.161,1.291-2.102,2.884-2.102h35.428
	c1.593,0,2.884,0.941,2.884,2.102l0,0C1204.751,917.841,1203.459,918.783,1201.867,918.783z"/><path fill="#EB57CB" d="M1204.12,915.37c0.004,0.045,0.009,0.09,0.009,0.135c0,1.161-1.291,2.102-2.884,2.102h-35.428
	c-0.913,0-1.725-0.31-2.253-0.792c0.096,1.098,1.344,1.967,2.874,1.967h35.428c1.593,0,2.884-0.941,2.884-2.102
	C1204.751,916.184,1204.514,915.729,1204.12,915.37z"/><path fill="#FFCBC7" d="M586.366,732.092c0,0,5.208,29.326,12.814,31.35c3.443,0.916,7.866,0.148,12.088-1.282
	c7.14-2.416,13.704-6.713,13.931-7.886l7.244-21.99c-4.17,1.797-27.925,15.339-29.866,16.636
	c-3.143-4.718-9.959-16.995-10.182-17.896c0,0,1.471-6.616,0.172-8.478c-1.155-1.648-1.579,3.756-2.067,3.101
	c-0.531-0.721-3.678-8.371-5.771-6.136C580.082,724.493,586.366,732.092,586.366,732.092z"/><path fill="#FF9CEA" d="M606.587,745.807c0.545,5.739,3.872,13.497,4.219,17.091c7.141-2.416,15.749-3.225,15.976-4.398
	l5.662-26.215C628.274,734.082,614.875,740.888,606.587,745.807z"/><path fill="#FFCBC7" d="M634.356,857.326c1.5,5.587,2.427,10.601,2.918,15.263c1.264,11.91,0.907,30.249-1.272,41.84l-6.107-0.599
	c0,0-8.627-31.328-12.704-47.349c-1.048-4.065-1.861-7.696-2.284-10.435c-2.463-15.633,6.661-59.923,7.246-62.79l0.024-0.11
	l0.008-0.041l24.573-3.432C659.814,820.735,644.328,828.549,634.356,857.326z"/><path fill="#382C85" d="M645.942,831.801c-3.467,7.134-7.9,14.896-11.586,25.525c1.36,5.06,2.908,10.321,4.697,16.454l-21.253,2.969
	c-1.047-4.065-2.469-17.965-2.892-20.704c-2.463-15.633,6.661-59.923,7.246-62.79l0.024-0.11l0.008-0.041l24.573-3.432
	C655.001,809.268,651.874,819.606,645.942,831.801z"/><path fill="#30386E" d="M645.942,831.801c-3.467,7.134-7.9,14.896-11.586,25.525c1.36,5.06,2.908,10.321,4.697,16.454l-3.921,0.548
	c-0.672-6.068-6.033-16.043-7.833-15.723c1.594-0.395,16.201-28.998,17.312-38.904L645.942,831.801z"/><path fill="#FFCBC7" d="M660.082,921.58l14.972-17.354c0,0-10.993-17.17-19.889-28.586c-2.112-2.732-4.104-5.12-5.807-6.889
	c-12.182-12.617-18.543-76.203-18.543-76.203h20.14c15.789,14.514,11.812,34.498,12.278,54.24c0.161,6.843,2.362,13.44,6.058,19.202
	c0.744,1.16,1.445,2.336,2.107,3.54c4.606,8.407,7.338,18.265,9.859,34.458l3.118,10.51L660.082,921.58z"/><path fill="#493D93" d="M672.414,869.187l-5.82,2.666l-11.825,5.411c-2.112-2.731-3.708-6.743-5.411-8.512
	c-12.182-12.617-20.047-76.453-20.047-76.453l20.786,0.237l0.858,0.013c15.26,14.028,12.056,33.167,12.246,52.258
	c0.077,7.791,2.596,15.395,7.347,21.569C671.245,867.281,671.88,868.211,672.414,869.187z"/><path fill="#382C85" d="M672.414,869.187l-5.82,2.666c-1.887-2.956-4.724-8.571-6.223-12.364
	c-3.959-10.022-1.524-23.632-2.475-42.768c-0.7-14.1-12.617-20.951-12.617-20.951l4.817-3.234l0.858,0.013
	c15.26,14.028,12.056,33.167,12.246,52.258c0.077,7.791,2.596,15.395,7.347,21.569C671.245,867.281,671.88,868.211,672.414,869.187z
	"/><path fill="#FF6EE0" d="M661.183,751.504c-0.172,12.696-3.3,34.71-4.487,42.629c-0.172,1.148-0.805,2.137-1.702,2.758
	c-0.489,0.343-1.069,0.581-1.69,0.673c-5.688,0.845-11.257,1.307-16.682,1.293c-4.883,0-9.647-0.369-14.28-1.174
	c-1.808-0.317-3.194-1.769-3.392-3.59c-0.647-5.991,1.233-19.136,0.929-31.925c-0.198-8.09,2.34-28.798,17.448-32.056l8.85-0.08
	c9.924,2.574,14.082,10.162,14.768,15.467C661.157,747.07,661.223,749.128,661.183,751.504z"/><path fill="#382C85" d="M629.179,912.081c-9.399,3.608-19.827,3.237-20.477,11.719l29.571-1.032
	c0.348-3.595-0.25-7.157-1.793-10.687H629.179z"/><path fill="#382C85" d="M675.054,904.226c-7.523,6.69-18.778,11.407-16.395,19.574l27.309-9.129
	c-0.942-3.487-2.206-9.085-4.894-11.845L675.054,904.226z"/><path fill="#493D93" d="M640.086,722.307c2.881,0.891,4.045,2.33,7.73,0.665c5.607-2.533,10.34-12.238,2.894-16.627
	c-0.515-1.536-1.034-2.134-2.996-2.561c-1.962-0.426-3.973,0.428-6.678,0.382c-2.705-0.046-6.53-2.831-8.888,1.102
	c-2.358,3.933,3.489,6.991,6.418,8.927C641.498,716.132,640.547,719.473,640.086,722.307z"/><path fill="#FFCBC7" d="M646.303,730.055c-3.22,3.22-6.258,3.837-8.975,0.057l0.765-6.211l0.319-2.615h7.126l0.137,1.622
	L646.303,730.055z"/><path fill="#F0B4B4" d="M645.777,724.062c-1.761,2.119-6.613,2.732-7.928,1.824l0.564-4.601l7.166-3.007L645.777,724.062z"/><path fill="#FFCBC7" d="M634.761,708.83c-1.311,3.696-2.596,11.868,0.54,14.907c1.986,1.923,9.191,1.18,10.662-4.111
	c1.738-1.259,3.014-4.327,1.412-5.719c-1.142-0.992-2.6,1.63-4.591,1.196c-0.755-0.164,1.565-5.212-0.793-6.087
	C639.633,708.142,637.138,710.037,634.761,708.83z"/><circle cx="560.453" cy="641.044" r="38.271" fill="#58595B" transform="rotate(-1.812 560.912 641.2)"/><path fill="#4642B8" d="M546.984,598.99c-23.369,7.208-36.543,31.999-29.368,55.265c7.176,23.266,32.025,36.331,55.395,29.123
	c23.369-7.207,36.543-32,29.368-55.265C595.204,604.847,570.354,591.783,546.984,598.99z M571.009,676.887
	c-19.805,6.109-40.791-4.924-46.872-24.643c-6.081-19.718,5.044-40.655,24.85-46.763c19.805-6.108,40.791,4.925,46.872,24.643
	C601.94,649.843,590.815,670.779,571.009,676.887z"/><rect width="13.243" height="20.198" x="568.439" y="679.14" fill="#4642B8" transform="rotate(-17.138 575.137 689.268)"/><path fill="#4642B8" d="M588.027,695.724c0.034,0.111,0.07,0.227,0.098,0.34l2.436,8.917l20.083,73.426l3.285,12.017
	c1.067,3.9-1.163,7.944-5.042,9.14c-3.88,1.197-8-0.888-9.322-4.71l-4.054-11.78l-24.757-71.984l-3.01-8.74
	c-1.957-5.673,1.196-11.843,6.96-13.62C580.349,686.988,586.306,690.141,588.027,695.724z"/><path fill="#3834AD" d="M604.498,780.302l6.146-1.895l3.283,12.016c1.069,3.901-1.162,7.945-5.041,9.142
	c-1.098,0.338-2.217,0.413-3.285,0.26c2.018-1.842,2.947-4.711,2.183-7.507L604.498,780.302z"/><path fill="#3834AD" d="M588.026,695.723c0.034,0.111,0.07,0.228,0.099,0.341l2.435,8.916l-6.143,1.895l-2.437-8.915
	c-0.026-0.114-0.062-0.231-0.096-0.342c-1.394-4.521-5.57-7.449-10.108-7.471c0.876-0.604,1.855-1.087,2.928-1.418
	C580.348,686.987,586.305,690.142,588.026,695.723z"/><polygon fill="#433EB8" points="590.559 704.98 610.644 778.407 604.498 780.302 584.417 706.874"/><polygon fill="#5A56CC" points="584.417 706.874 604.498 780.302 595.511 783.074 570.753 711.088"/><path fill="#FFCBC7" d="M655.361,755.71c0,0-7.913,9.53-15.097,14.772c-1.719,1.243-3.383,2.24-4.895,2.815
	c-10.468,3.973-34.424,2.64-34.424,2.64c-7.61,3.883-9.063,0.774-10.775-2.209c-4.224-7.364,4.299-1.972,5.504-5.038
	c0,0-4.864-1.482-3.256-3.759c1.597-2.292,10.542,2.984,10.542,2.984c11.317-2.108,17.382-5.33,26.337-7.111
	c0.771-1.083,1.543-2.166,2.339-3.232c5.766-7.658,12.451-14.628,21.545-19.259C657.586,744.073,657.457,749.888,655.361,755.71z"/><path fill="#FF9CEA" d="M642.507,770.734l-12.494-13.963c5.766-7.658,16.808-24.442,24.508-17.745
	C664.774,747.944,649.69,765.492,642.507,770.734z"/><path fill="#7D65E0" d="M1268.918,864.201c-2.574-1.546-4.825-3.616-6.562-6.068c-0.814-1.15-1.584-2.396-2.06-3.734l0.108,0.075
	c0.366,0.087,2.888,0.647,4.398-0.794c1.228-1.172,1.273-3.176,1.309-4.778c0.013-0.565-0.018-1.038-0.05-1.373
	c-0.445,0.562-1.157,1.331-2.21,1.979c-0.833,0.513-1.264,0.571-1.809,0.919c-0.704,0.45-1.512,1.331-1.977,3.223
	c-0.352-1.375-0.266-2.787-0.096-4.187c0.169-1.39,0.422-2.788,0.344-4.194c-0.059-1.074-0.35-2.07-0.897-2.966
	c0.672,0.139,2.873,0.477,4.242-0.829c1.228-1.172,1.273-3.176,1.309-4.778c0.013-0.565-0.018-1.037-0.051-1.373
	c-0.445,0.563-1.157,1.332-2.21,1.979c-0.833,0.512-1.264,0.571-1.809,0.919c-0.719,0.46-1.547,1.369-2.007,3.348
	c-0.969-1.189-2.202-2.207-3.404-3.146c-0.592-0.463-1.209-0.888-1.829-1.309c0.859,0.144,2.764,0.301,3.997-0.875
	c1.228-1.172,1.273-3.176,1.309-4.779c0.013-0.565-0.019-1.038-0.051-1.373c-0.445,0.563-1.157,1.331-2.21,1.979
	c-0.833,0.513-1.264,0.571-1.809,0.919c-0.745,0.477-1.608,1.436-2.056,3.569c-0.318-0.219-0.634-0.441-0.944-0.672
	c-1.351-1.002-2.484-2.249-2.764-3.955l0.226,0.157c0.366,0.086,2.888,0.647,4.398-0.795c1.228-1.172,1.273-3.176,1.309-4.778
	c0.013-0.565-0.018-1.038-0.051-1.373c-0.445,0.563-1.157,1.331-2.21,1.979c-0.833,0.512-1.264,0.571-1.809,0.919
	c-0.686,0.439-1.471,1.286-1.941,3.081c-0.035-1.212,0.257-2.424,0.617-3.591l0.427-0.122c0.31-0.237,2.424-1.896,2.261-4.06
	c-0.133-1.76-1.714-3.117-2.979-4.203c-0.446-0.383-0.846-0.669-1.137-0.865c0.159,0.729,0.308,1.808,0.135,3.081
	c-0.137,1.007-0.374,1.393-0.453,2.06c-0.108,0.915,0.096,2.245,1.524,4.018c-0.354,1.148-0.638,2.328-0.634,3.53
	c0.004,1.225,0.367,2.364,1.075,3.332c-0.71-0.51-2.082-1.285-3.477-0.893c-1.513,0.425-2.421,2.045-3.146,3.34
	c-0.256,0.457-0.436,0.857-0.555,1.145c0.608-0.267,1.525-0.586,2.667-0.659c0.904-0.057,1.282,0.082,1.879,0.034
	c0.838-0.068,1.996-0.497,3.332-2.147l-0.024-0.046c0.908,0.898,2.013,1.577,3.064,2.291c0.784,0.533,1.544,1.101,2.277,1.701
	l-0.063-0.035c-0.345-0.046-2.721-0.332-3.981,1.134c-1.025,1.192-0.883,3.043-0.77,4.523c0.04,0.522,0.112,0.954,0.172,1.261
	c0.359-0.559,0.945-1.333,1.856-2.026c0.721-0.548,1.113-0.642,1.583-1.012c0.65-0.512,1.364-1.489,1.575-3.537
	c0.455,0.385,0.899,0.782,1.331,1.193c0.443,0.422,0.857,0.859,1.214,1.329c-0.004,0.02-0.008,0.039-0.012,0.059l0.114,0.079
	c0.529,0.728,0.92,1.535,1.071,2.481c0.15,0.944,0.102,1.901-0.001,2.852l-0.333-0.221c-0.34-0.073-2.687-0.542-4.057,0.822
	c-1.114,1.109-1.117,2.966-1.119,4.45c-0.001,0.523,0.037,0.96,0.074,1.271c0.401-0.53,1.046-1.256,2.007-1.876
	c0.761-0.491,1.159-0.553,1.657-0.887c0.581-0.389,1.234-1.105,1.645-2.539c-0.019,0.146-0.039,0.291-0.058,0.436
	c-0.181,1.386-0.356,2.801-0.128,4.192c0.063,0.384,0.157,0.76,0.274,1.129c-0.001,0.006-0.002,0.011-0.003,0.017l0.011,0.007
	c0.376,1.177,0.995,2.281,1.66,3.312c1.822,2.823,4.292,5.2,7.171,6.929C1268.928,864.488,1269.051,864.281,1268.918,864.201z"/><path fill="#7D65E0" d="M1283.363,864.885c2.614-1.479,4.917-3.49,6.717-5.896c0.844-1.128,1.645-2.354,2.156-3.679l-0.11,0.072
	c-0.368,0.077-2.904,0.572-4.376-0.908c-1.197-1.203-1.19-3.208-1.185-4.811c0.002-0.565,0.045-1.037,0.086-1.371
	c0.43,0.574,1.122,1.361,2.157,2.036c0.819,0.534,1.249,0.603,1.784,0.966c0.692,0.468,1.477,1.369,1.893,3.273
	c0.387-1.366,0.338-2.78,0.204-4.183c-0.133-1.394-0.35-2.798-0.236-4.202c0.088-1.072,0.404-2.061,0.973-2.942
	c-0.676,0.122-2.884,0.402-4.219-0.939c-1.197-1.203-1.19-3.208-1.185-4.811c0.002-0.565,0.045-1.037,0.086-1.371
	c0.43,0.574,1.122,1.361,2.158,2.036c0.819,0.534,1.249,0.603,1.784,0.966c0.707,0.478,1.511,1.408,1.92,3.399
	c0.999-1.164,2.258-2.149,3.484-3.057c0.604-0.447,1.232-0.856,1.863-1.261c-0.862,0.122-2.771,0.229-3.973-0.978
	c-1.197-1.203-1.19-3.208-1.185-4.811c0.002-0.565,0.045-1.037,0.086-1.371c0.43,0.574,1.123,1.361,2.158,2.036
	c0.819,0.534,1.249,0.603,1.784,0.966c0.732,0.496,1.57,1.477,1.963,3.621c0.323-0.211,0.645-0.425,0.961-0.647
	c1.377-0.966,2.542-2.183,2.866-3.882l-0.23,0.151c-0.368,0.077-2.904,0.571-4.376-0.908c-1.197-1.203-1.19-3.208-1.185-4.811
	c0.002-0.565,0.045-1.037,0.086-1.371c0.43,0.574,1.123,1.361,2.158,2.035c0.819,0.534,1.249,0.604,1.784,0.966
	c0.674,0.456,1.437,1.324,1.861,3.13c0.067-1.211-0.194-2.43-0.524-3.605l-0.424-0.133c-0.304-0.245-2.374-1.958-2.155-4.117
	c0.178-1.756,1.795-3.072,3.087-4.124c0.455-0.371,0.863-0.647,1.159-0.835c-0.178,0.724-0.354,1.8-0.214,3.077
	c0.111,1.011,0.338,1.402,0.4,2.071c0.084,0.918-0.154,2.242-1.627,3.977c0.324,1.157,0.577,2.344,0.542,3.546
	c-0.035,1.225-0.428,2.354-1.161,3.303c0.723-0.491,2.115-1.23,3.499-0.802c1.502,0.464,2.367,2.107,3.059,3.42
	c0.244,0.463,0.414,0.868,0.525,1.159c-0.601-0.283-1.509-0.625-2.649-0.728c-0.902-0.081-1.284,0.049-1.879-0.015
	c-0.835-0.089-1.983-0.548-3.275-2.232l0.025-0.045c-0.931,0.874-2.053,1.524-3.122,2.21c-0.798,0.512-1.572,1.06-2.32,1.642
	l0.064-0.033c0.346-0.037,2.729-0.261,3.95,1.237c0.993,1.218,0.804,3.065,0.652,4.542c-0.053,0.52-0.137,0.951-0.205,1.256
	c-0.344-0.568-0.91-1.357-1.803-2.073c-0.706-0.567-1.096-0.67-1.556-1.053c-0.636-0.529-1.325-1.524-1.483-3.576
	c-0.465,0.373-0.919,0.758-1.362,1.158c-0.454,0.41-0.879,0.837-1.248,1.297c0.004,0.02,0.007,0.039,0.011,0.06l-0.116,0.076
	c-0.548,0.714-0.959,1.511-1.135,2.453c-0.175,0.94-0.151,1.898-0.072,2.851l0.338-0.212c0.342-0.064,2.7-0.472,4.035,0.926
	c1.085,1.138,1.039,2.994,1.003,4.478c-0.013,0.523-0.062,0.959-0.107,1.268c-0.387-0.54-1.013-1.282-1.958-1.927
	c-0.748-0.51-1.144-0.583-1.633-0.929c-0.571-0.404-1.205-1.137-1.579-2.581c0.016,0.146,0.031,0.292,0.046,0.437
	c0.146,1.39,0.284,2.809,0.019,4.194c-0.073,0.382-0.176,0.756-0.303,1.122c0.001,0.006,0.002,0.011,0.003,0.017l-0.011,0.007
	c-0.407,1.167-1.053,2.254-1.745,3.268c-1.894,2.774-4.426,5.086-7.348,6.74C1283.346,865.172,1283.228,864.961,1283.363,864.885z"/><path fill="#7D65E0" d="M1277.413,864.081c-1.61-2.535-2.697-5.393-3.152-8.363c-0.214-1.393-0.344-2.852-0.171-4.261l0.063,0.116
	c0.288,0.241,2.294,1.871,4.289,1.258c1.622-0.498,2.56-2.271,3.309-3.687c0.264-0.499,0.448-0.936,0.569-1.251
	c-0.649,0.304-1.631,0.673-2.862,0.781c-0.974,0.086-1.386-0.055-2.029,0.013c-0.83,0.087-1.947,0.513-3.211,1.997
	c0.301-1.387,1.01-2.612,1.788-3.787c0.773-1.167,1.625-2.305,2.185-3.596c0.427-0.987,0.614-2.008,0.526-3.054
	c0.539,0.425,2.356,1.712,4.164,1.157c1.622-0.498,2.56-2.27,3.309-3.687c0.264-0.499,0.448-0.936,0.569-1.251
	c-0.65,0.304-1.631,0.673-2.862,0.781c-0.974,0.086-1.386-0.055-2.029,0.012c-0.849,0.089-1.996,0.531-3.293,2.095
	c-0.334-1.497-0.981-2.959-1.636-4.337c-0.323-0.679-0.684-1.335-1.05-1.99c0.703,0.513,2.337,1.506,3.966,1.006
	c1.622-0.498,2.56-2.271,3.309-3.687c0.264-0.499,0.448-0.936,0.569-1.251c-0.65,0.304-1.631,0.673-2.862,0.781
	c-0.974,0.086-1.386-0.055-2.029,0.012c-0.88,0.093-2.08,0.564-3.436,2.272c-0.186-0.339-0.369-0.679-0.544-1.023
	c-0.76-1.5-1.215-3.122-0.702-4.774l0.132,0.241c0.288,0.241,2.293,1.871,4.289,1.258c1.622-0.498,2.56-2.271,3.309-3.687
	c0.264-0.499,0.448-0.936,0.569-1.251c-0.65,0.304-1.631,0.673-2.862,0.781c-0.974,0.086-1.386-0.055-2.029,0.013
	c-0.809,0.085-1.891,0.492-3.115,1.887c0.511-1.1,1.314-2.052,2.159-2.935l0.437,0.082c0.384-0.073,3.016-0.611,3.839-2.619
	c0.669-1.633-0.138-3.555-0.783-5.091c-0.227-0.542-0.457-0.977-0.63-1.282c-0.184,0.723-0.534,1.755-1.259,2.816
	c-0.573,0.84-0.958,1.078-1.328,1.639c-0.506,0.77-0.919,2.05-0.436,4.275c-0.83,0.869-1.612,1.797-2.147,2.873
	c-0.545,1.097-0.73,2.278-0.53,3.46c-0.407-0.773-1.287-2.08-2.71-2.354c-1.543-0.297-3.08,0.745-4.309,1.579
	c-0.433,0.294-0.773,0.571-1.009,0.776c0.663,0.033,1.626,0.158,2.68,0.604c0.834,0.353,1.11,0.647,1.665,0.871
	c0.779,0.314,2.008,0.449,3.941-0.429l-0.001-0.052c0.41,1.209,1.094,2.311,1.715,3.42c0.463,0.827,0.888,1.675,1.275,2.54
	l-0.041-0.06c-0.288-0.196-2.285-1.515-4.068-0.767c-1.449,0.608-2.151,2.326-2.713,3.701c-0.198,0.484-0.327,0.904-0.41,1.205
	c0.571-0.34,1.441-0.769,2.566-0.981c0.89-0.168,1.282-0.076,1.869-0.197c0.81-0.168,1.886-0.721,2.991-2.458
	c0.235,0.548,0.454,1.102,0.657,1.663c0.207,0.575,0.382,1.152,0.491,1.732c-0.012,0.016-0.025,0.031-0.037,0.048l0.067,0.122
	c0.147,0.888,0.136,1.784-0.153,2.698c-0.288,0.912-0.76,1.746-1.277,2.55l-0.199-0.346c-0.272-0.218-2.16-1.688-3.996-1.081
	c-1.492,0.493-2.326,2.152-2.992,3.479c-0.235,0.468-0.397,0.875-0.503,1.169c0.596-0.294,1.497-0.655,2.635-0.779
	c0.9-0.098,1.284,0.024,1.878-0.051c0.693-0.088,1.598-0.436,2.608-1.535c-0.082,0.122-0.165,0.243-0.246,0.364
	c-0.783,1.158-1.572,2.345-1.99,3.692c-0.115,0.371-0.2,0.75-0.261,1.132c-0.003,0.005-0.007,0.009-0.011,0.013l0.006,0.012
	c-0.19,1.221-0.131,2.485,0.003,3.705c0.366,3.339,1.512,6.571,3.312,9.405C1277.294,864.342,1277.497,864.212,1277.413,864.081z"/><path fill="#9D8DE0" d="M1271.446,865.052c-2.286-2.833-3.986-6.126-4.941-9.642c-0.448-1.648-0.804-3.387-0.789-5.109l0.092,0.131
	c0.38,0.251,3.018,1.94,5.338,0.928c1.886-0.822,2.772-3.085,3.481-4.894c0.25-0.638,0.412-1.189,0.514-1.584
	c-0.741,0.455-1.872,1.033-3.34,1.332c-1.161,0.236-1.677,0.123-2.442,0.293c-0.988,0.219-2.275,0.885-3.594,2.845
	c0.173-1.712,0.859-3.284,1.636-4.806c0.771-1.512,1.642-2.998,2.14-4.63c0.38-1.247,0.464-2.503,0.215-3.75
	c0.707,0.438,3.071,1.74,5.174,0.824c1.885-0.822,2.772-3.085,3.481-4.894c0.25-0.637,0.412-1.189,0.515-1.584
	c-0.741,0.455-1.872,1.033-3.34,1.332c-1.162,0.236-1.677,0.123-2.442,0.293c-1.01,0.224-2.331,0.913-3.68,2.974
	c-0.607-1.758-1.587-3.429-2.564-4.999c-0.481-0.774-1.007-1.514-1.536-2.253c0.917,0.522,3.021,1.494,4.914,0.669
	c1.886-0.822,2.772-3.085,3.481-4.894c0.25-0.638,0.412-1.189,0.515-1.584c-0.741,0.455-1.872,1.034-3.34,1.332
	c-1.161,0.236-1.677,0.123-2.442,0.292c-1.047,0.232-2.428,0.964-3.828,3.206c-0.27-0.382-0.537-0.767-0.795-1.158
	c-1.121-1.703-1.891-3.594-1.499-5.653l0.192,0.272c0.38,0.251,3.018,1.94,5.338,0.929c1.886-0.822,2.772-3.085,3.481-4.894
	c0.25-0.638,0.412-1.188,0.514-1.584c-0.741,0.455-1.872,1.033-3.34,1.332c-1.161,0.236-1.677,0.123-2.442,0.293
	c-0.963,0.214-2.21,0.851-3.494,2.698c0.465-1.394,1.302-2.652,2.199-3.83l0.537,0.039c0.452-0.14,3.549-1.148,4.265-3.679
	c0.582-2.058-0.652-4.263-1.639-6.025c-0.348-0.621-0.684-1.115-0.934-1.458c-0.123,0.896-0.404,2.186-1.131,3.563
	c-0.576,1.09-1.006,1.429-1.374,2.156c-0.505,0.997-0.827,2.596,0.06,5.208c-0.881,1.16-1.696,2.385-2.193,3.754
	c-0.507,1.396-0.568,2.844-0.165,4.24c-0.596-0.876-1.834-2.33-3.586-2.465c-1.9-0.147-3.608,1.319-4.973,2.491
	c-0.481,0.413-0.853,0.793-1.109,1.072c0.804-0.05,1.98-0.032,3.31,0.361c1.053,0.311,1.425,0.628,2.125,0.821
	c0.981,0.272,2.479,0.266,4.687-1.055l-0.008-0.062c0.659,1.4,1.634,2.634,2.533,3.884c0.671,0.933,1.298,1.896,1.883,2.885
	l-0.057-0.066c-0.373-0.196-2.959-1.512-5.004-0.368c-1.663,0.93-2.273,3.096-2.761,4.828c-0.172,0.611-0.271,1.133-0.329,1.507
	c0.641-0.487,1.631-1.124,2.956-1.533c1.049-0.324,1.534-0.267,2.224-0.493c0.953-0.313,2.173-1.127,3.266-3.369
	c0.358,0.627,0.698,1.265,1.018,1.913c0.328,0.664,0.617,1.335,0.828,2.019c-0.013,0.021-0.026,0.041-0.038,0.062l0.097,0.138
	c0.299,1.049,0.408,2.131,0.185,3.271c-0.222,1.137-0.676,2.207-1.19,3.245l-0.287-0.39c-0.357-0.225-2.833-1.737-4.961-0.755
	c-1.73,0.798-2.507,2.911-3.128,4.599c-0.219,0.595-0.358,1.109-0.446,1.477c0.677-0.436,1.714-0.993,3.067-1.298
	c1.071-0.242,1.55-0.147,2.255-0.319c0.823-0.201,1.865-0.744,2.93-2.205c-0.083,0.158-0.165,0.315-0.247,0.472
	c-0.784,1.502-1.573,3.04-1.892,4.719c-0.088,0.463-0.138,0.93-0.159,1.399c-0.004,0.006-0.007,0.012-0.011,0.018l0.009,0.013
	c-0.062,1.497,0.182,3.01,0.51,4.461c0.898,3.972,2.719,7.707,5.276,10.874C1271.338,865.383,1271.564,865.198,1271.446,865.052z"/><path fill="#9D8DE0" d="M1278.127,862.022c2.672-2.473,4.829-5.486,6.282-8.826c0.682-1.566,1.286-3.236,1.519-4.941l-0.11,0.116
	c-0.412,0.193-3.267,1.483-5.416,0.147c-1.747-1.086-2.297-3.453-2.737-5.346c-0.155-0.667-0.235-1.235-0.28-1.642
	c0.667,0.557,1.703,1.293,3.112,1.801c1.115,0.402,1.642,0.364,2.374,0.642c0.946,0.36,2.123,1.204,3.145,3.335
	c0.076-1.719-0.375-3.373-0.924-4.992c-0.545-1.607-1.192-3.204-1.448-4.891c-0.196-1.289-0.098-2.544,0.329-3.741
	c-0.763,0.332-3.291,1.278-5.238,0.067c-1.747-1.086-2.297-3.453-2.737-5.346c-0.155-0.667-0.236-1.235-0.28-1.642
	c0.667,0.557,1.703,1.293,3.112,1.801c1.115,0.402,1.641,0.364,2.374,0.642c0.967,0.367,2.175,1.24,3.211,3.475
	c0.855-1.651,2.066-3.164,3.26-4.576c0.588-0.696,1.215-1.353,1.846-2.007c-0.983,0.384-3.205,1.042-4.959-0.048
	c-1.747-1.086-2.297-3.453-2.737-5.345c-0.155-0.667-0.235-1.236-0.28-1.642c0.667,0.557,1.703,1.293,3.112,1.801
	c1.115,0.402,1.641,0.364,2.374,0.642c1.002,0.381,2.263,1.305,3.324,3.725c0.323-0.339,0.643-0.681,0.954-1.031
	c1.355-1.524,2.391-3.284,2.3-5.378l-0.229,0.242c-0.412,0.193-3.267,1.483-5.416,0.147c-1.747-1.086-2.297-3.453-2.737-5.345
	c-0.155-0.667-0.236-1.236-0.28-1.642c0.667,0.557,1.703,1.293,3.112,1.8c1.115,0.402,1.641,0.364,2.374,0.643
	c0.922,0.35,2.064,1.162,3.067,3.175c-0.259-1.447-0.905-2.812-1.622-4.107l-0.537-0.038c-0.427-0.204-3.346-1.649-3.689-4.257
	c-0.279-2.12,1.262-4.123,2.493-5.725c0.434-0.564,0.838-1.004,1.135-1.308c-0.008,0.904,0.083,2.222,0.604,3.689
	c0.412,1.161,0.789,1.56,1.048,2.332c0.355,1.059,0.443,2.688-0.812,5.145c0.704,1.275,1.334,2.605,1.627,4.032
	c0.299,1.455,0.151,2.896-0.45,4.219c0.716-0.78,2.152-2.04,3.905-1.921c1.901,0.13,3.379,1.826,4.561,3.183
	c0.417,0.478,0.729,0.908,0.943,1.221c-0.788-0.166-1.955-0.318-3.328-0.121c-1.087,0.156-1.501,0.415-2.221,0.506
	c-1.01,0.127-2.492-0.095-4.485-1.722l0.017-0.061c-0.855,1.291-1.997,2.37-3.068,3.477c-0.798,0.826-1.559,1.689-2.28,2.583
	l0.066-0.057c0.398-0.141,3.146-1.068,5.005,0.359c1.511,1.161,1.802,3.392,2.034,5.177c0.082,0.629,0.104,1.16,0.108,1.539
	c-0.564-0.575-1.451-1.347-2.704-1.944c-0.991-0.472-1.479-0.486-2.129-0.809c-0.897-0.447-1.987-1.429-2.745-3.806
	c-0.444,0.569-0.874,1.151-1.284,1.746c-0.421,0.61-0.804,1.232-1.111,1.878c0.01,0.022,0.019,0.044,0.029,0.067l-0.116,0.122
	c-0.447,0.995-0.712,2.049-0.656,3.21c0.055,1.157,0.35,2.281,0.708,3.383l0.34-0.344c0.386-0.171,3.054-1.309,5.018-0.031
	c1.596,1.04,2.06,3.242,2.43,5.003c0.13,0.621,0.194,1.149,0.227,1.526c-0.607-0.529-1.552-1.231-2.847-1.728
	c-1.025-0.394-1.513-0.369-2.185-0.641c-0.786-0.318-1.738-1.006-2.581-2.606c0.059,0.168,0.118,0.336,0.176,0.503
	c0.559,1.6,1.117,3.235,1.19,4.943c0.021,0.471,0.003,0.941-0.045,1.408c0.003,0.007,0.005,0.013,0.008,0.019l-0.011,0.012
	c-0.155,1.49-0.615,2.953-1.149,4.341c-1.462,3.8-3.805,7.233-6.792,9.998C1278.186,862.365,1277.989,862.149,1278.127,862.022z"/><path fill="#FF6EE0" d="M1296.878,863.238c-0.225,2.89-4.035,51.41-4.388,55.912h-33.597c-0.41-4.73-4.581-52.82-4.844-55.912
	H1296.878z"/><path fill="#EB57CB" d="M1254.049,863.238c0.038,0.446,0.158,1.834,0.336,3.89h12.934c11.76,0,21.025,10.019,20.105,21.743
	c-0.881,11.23-1.874,23.868-2.377,30.279h7.443c0.353-4.502,4.164-53.022,4.388-55.911H1254.049z"/><path fill="#FF6EE0" d="M1296.039,863.24h-41.151c-2.761,0-5-1.815-5-4.055l0,0c0-2.24,2.239-4.055,5-4.055h41.151
	c2.762,0,5,1.815,5,4.055l0,0C1301.039,861.424,1298.801,863.24,1296.039,863.24z"/><polygon fill="#C4CFFB" points="503.453 44.607 514.792 45.114 503.475 44.665 537.765 67.914 542.777 64.011 566.605 70.073 557.904 46.937 570.416 36.2"/><path fill="#C4CFFB" d="M960.727,127.22c-0.208-1.45-1.565-2.448-3.001-2.248c-1.45,0.209-2.456,1.553-2.248,3.002
	c0.756,5.263,0.813,8.596,0.813,8.629c0.022,1.463,1.225,2.634,2.689,2.614c0.076-0.002,0.15-0.005,0.224-0.013
	c1.357-0.133,2.409-1.285,2.39-2.673C961.592,136.384,961.537,132.857,960.727,127.22z"/><path fill="#C4CFFB" d="M760.384,71.163c-6.333-0.895-12.578-1.318-18.562-1.26c-1.488,0.012-2.64,1.214-2.626,2.678
	c0.014,1.464,1.213,2.64,2.677,2.626c5.72-0.055,11.699,0.351,17.77,1.209c0.214,0.03,0.425,0.034,0.631,0.014
	c1.19-0.117,2.191-1.033,2.365-2.269C762.844,72.71,761.834,71.368,760.384,71.163z"/><path fill="#C4CFFB" d="M785.279,142.043c-1.448-1.005-2.908-2.138-4.339-3.369c-2.748-2.364-4.641-5.422-5.626-9.088
	c-0.38-1.414-1.836-2.255-3.249-1.874c-1.414,0.38-2.253,1.835-1.873,3.249c1.266,4.715,3.718,8.662,7.289,11.734
	c1.57,1.349,3.175,2.596,4.773,3.705c0.538,0.373,1.165,0.52,1.77,0.461c0.747-0.073,1.459-0.462,1.921-1.128
	C786.78,144.53,786.482,142.878,785.279,142.043z"/><path fill="#C4CFFB" d="M723.227,71.776c-6.395,1.29-12.411,3.257-17.881,5.847c-1.324,0.627-1.888,2.208-1.261,3.532
	c0.492,1.039,1.572,1.611,2.655,1.505c0.296-0.029,0.592-0.109,0.877-0.243c5.081-2.406,10.685-4.237,16.659-5.441
	c1.436-0.289,2.365-1.688,2.076-3.124C726.061,72.417,724.674,71.481,723.227,71.776z"/><path fill="#C4CFFB" d="M654.16,93.543c-1.554,0.208-3.114,0.389-4.638,0.538c-0.012,0.001-0.026,0.002-0.038,0.004
	c-4.439,0.435-8.849,0.632-13.105,0.584c-1.478-0.009-2.666,1.158-2.681,2.622c-0.015,1.465,1.158,2.665,2.622,2.682
	c4.448,0.049,9.051-0.156,13.681-0.609c0.014-0.001,0.029-0.003,0.042-0.004c1.586-0.155,3.208-0.344,4.823-0.56
	c1.451-0.195,2.471-1.529,2.276-2.98C656.945,94.367,655.59,93.365,654.16,93.543z"/><path fill="#C4CFFB" d="M772.75,114.846c0.324,0.09,0.651,0.116,0.967,0.085c1.06-0.104,1.996-0.843,2.298-1.93
	c1.433-5.158,3.826-10.513,7.112-15.917c0.761-1.251,0.364-2.883-0.887-3.643c-1.253-0.762-2.884-0.364-3.643,0.888
	c-3.54,5.821-6.128,11.626-7.691,17.253C770.512,112.992,771.339,114.454,772.75,114.846z"/><path fill="#C4CFFB" d="M796.08,80.959c-0.091-0.037-0.182-0.075-0.274-0.113c3.413-3.514,7.119-6.824,11.049-9.864
	c1.159-0.896,1.372-2.561,0.476-3.72c-0.896-1.16-2.562-1.369-3.72-0.475c-4.727,3.656-9.147,7.684-13.148,11.983
	c-3.904-1.432-7.895-2.71-11.922-3.82c-1.419-0.39-2.871,0.442-3.261,1.853c-0.389,1.412,0.441,2.872,1.853,3.261
	c5.772,1.59,11.464,3.54,16.918,5.797c0.417,0.172,0.851,0.23,1.271,0.189c0.943-0.092,1.806-0.689,2.194-1.626
	C798.076,83.07,797.433,81.519,796.08,80.959z"/><path fill="#C4CFFB" d="M688.804,84.672c-5.714,2.128-11.467,3.946-17.1,5.405c-1.418,0.367-2.269,1.815-1.902,3.232
	c0.332,1.281,1.545,2.1,2.823,1.975c0.136-0.014,0.273-0.038,0.409-0.073c5.808-1.505,11.736-3.379,17.62-5.569
	c1.373-0.511,2.071-2.038,1.56-3.41C691.703,84.859,690.172,84.161,688.804,84.672z"/><path fill="#C4CFFB" d="M618.724,92.99c-5.898-1.095-11.605-2.744-16.962-4.901c-1.358-0.545-2.903,0.111-3.449,1.47
	c-0.548,1.359,0.11,2.904,1.469,3.45c5.683,2.288,11.731,4.036,17.973,5.195c0.253,0.047,0.502,0.056,0.744,0.032
	c1.146-0.112,2.127-0.967,2.347-2.155C621.114,94.642,620.164,93.257,618.724,92.99z"/><path fill="#C4CFFB" d="M873.329,44.66c-5.243-0.326-10.544-0.233-15.755,0.277c-0.003,0-0.006,0.001-0.009,0.001
	c-0.975,0.096-1.946,0.205-2.914,0.329c-1.452,0.186-2.479,1.514-2.294,2.967c0.186,1.452,1.468,2.471,2.967,2.294
	c0.914-0.117,1.833-0.221,2.757-0.311c0.003,0,0.007-0.001,0.01-0.001c4.93-0.483,9.945-0.571,14.906-0.262
	c0.146,0.009,0.288,0.006,0.427-0.007c1.272-0.125,2.304-1.157,2.385-2.475C875.901,46.01,874.79,44.751,873.329,44.66z"/><path fill="#C4CFFB" d="M909.431,53.571c-5.49-2.523-11.435-4.569-17.668-6.08c-1.42-0.345-2.858,0.529-3.202,1.952
	c-0.346,1.423,0.528,2.857,1.952,3.202c5.903,1.431,11.523,3.365,16.703,5.746c0.443,0.203,0.911,0.275,1.364,0.23
	c0.907-0.089,1.745-0.644,2.153-1.533C911.345,55.758,910.762,54.183,909.431,53.571z"/><path fill="#C4CFFB" d="M925.516,63.212c-1.166-0.89-2.829-0.666-3.717,0.498c-0.89,1.164-0.666,2.828,0.497,3.717
	c4.63,3.536,8.89,7.634,12.662,12.182c0.583,0.704,1.455,1.029,2.301,0.946c0.509-0.05,1.009-0.247,1.432-0.598
	c1.127-0.935,1.284-2.607,0.348-3.734C935.015,71.369,930.464,66.991,925.516,63.212z"/><path fill="#C4CFFB" d="M816.862,145.645c-4.939,2.6-10.467,3.568-16.056,2.811c-1.455-0.198-2.787,0.82-2.983,2.271
	c-0.197,1.452,0.82,2.787,2.272,2.984c2.52,0.342,5.053,0.392,7.531,0.15c4.087-0.4,8.026-1.585,11.708-3.523
	c1.296-0.682,1.793-2.285,1.112-3.582C819.762,145.462,818.163,144.963,816.862,145.645z"/><path fill="#C4CFFB" d="M956.574,109.061c-1.922-6.073-4.332-11.873-7.164-17.24c-0.682-1.295-2.285-1.792-3.583-1.108
	c-1.296,0.684-1.792,2.288-1.109,3.583c2.685,5.088,4.972,10.594,6.8,16.366c0.384,1.215,1.564,1.959,2.783,1.84
	c0.182-0.018,0.364-0.054,0.545-0.112C956.242,111.948,957.017,110.458,956.574,109.061z"/><path fill="#C4CFFB" d="M836.433,49.357c-5.857,1.896-11.634,4.353-17.169,7.302c-1.292,0.689-1.782,2.295-1.093,3.587
	c0.52,0.976,1.564,1.494,2.6,1.393c0.336-0.033,0.671-0.131,0.988-0.299c5.26-2.802,10.747-5.136,16.308-6.936
	c1.393-0.451,2.158-1.946,1.707-3.34C839.321,49.671,837.829,48.909,836.433,49.357z"/><path fill="#C4CFFB" d="M827.822,100.436c-3.995-3.864-9.073-7.635-15.093-11.209c-1.259-0.747-2.887-0.334-3.634,0.927
	c-0.747,1.259-0.332,2.886,0.928,3.634c5.666,3.363,10.414,6.882,14.112,10.46c0.583,0.563,1.356,0.806,2.104,0.733
	c0.604-0.059,1.191-0.325,1.647-0.795C828.902,103.133,828.874,101.454,827.822,100.436z"/><path fill="#C4CFFB" d="M837.286,117.566c-0.193-1.452-1.552-2.466-2.979-2.278c-1.452,0.194-2.471,1.528-2.277,2.979
	c0.031,0.233,0.057,0.467,0.08,0.701c0.485,4.956-0.748,10.338-3.472,15.155c-0.722,1.275-0.271,2.893,1.003,3.614
	c0.492,0.278,1.037,0.382,1.561,0.331c0.831-0.081,1.61-0.552,2.052-1.334c3.256-5.758,4.724-12.251,4.133-18.283
	C837.359,118.155,837.325,117.86,837.286,117.566z"/><path fill="#C4CFFB" d="M586.123,79.765c-2.393-1.624-4.739-3.398-6.972-5.274c-1.121-0.943-2.794-0.797-3.736,0.324
	c-0.943,1.121-0.797,2.794,0.324,3.736c2.372,1.993,4.864,3.878,7.407,5.603c0.534,0.361,1.151,0.503,1.746,0.445
	c0.757-0.074,1.477-0.472,1.937-1.151C587.651,82.236,587.335,80.587,586.123,79.765z"/><path fill="#FFC9F3" d="M1236.759,440.474c-0.997-0.161-1.891-0.712-2.497-1.568c-0.801-1.13-0.933-2.556-0.355-3.815l5.585-12.148
	c0.579-1.259,1.748-2.087,3.127-2.215c1.378-0.127,2.681,0.471,3.48,1.6l7.728,10.911c0.801,1.13,0.933,2.557,0.354,3.815
	c-0.578,1.258-1.747,2.086-3.126,2.214l-13.313,1.238C1237.408,440.537,1237.078,440.525,1236.759,440.474z M1243.111,423.743
	c-0.088-0.014-0.164-0.012-0.213-0.008c-0.14,0.013-0.485,0.085-0.661,0.469l-5.585,12.148c-0.176,0.384-0.006,0.693,0.075,0.807
	c0.081,0.115,0.314,0.377,0.736,0.338l13.314-1.237c0.421-0.039,0.603-0.341,0.661-0.468c0.059-0.128,0.169-0.462-0.074-0.807
	l-7.728-10.911C1243.476,423.851,1243.273,423.769,1243.111,423.743z"/><path fill="#FFC9F3" d="M1234.278,214.174c0.853-0.542,1.886-0.723,2.908-0.486c1.349,0.313,2.395,1.291,2.799,2.616l3.893,12.792
	c0.403,1.325,0.079,2.72-0.867,3.732c-0.946,1.011-2.317,1.428-3.665,1.115l-13.024-3.024c-1.35-0.313-2.396-1.292-2.799-2.617
	c-0.403-1.325-0.079-2.72,0.867-3.731l9.131-9.767C1233.751,214.558,1234.005,214.348,1234.278,214.174z M1240.641,230.901
	c0.075-0.048,0.13-0.1,0.164-0.136c0.096-0.103,0.307-0.386,0.183-0.79l-3.893-12.791c-0.123-0.404-0.455-0.522-0.592-0.554
	c-0.137-0.032-0.485-0.073-0.775,0.236l-9.131,9.767c-0.289,0.309-0.225,0.655-0.183,0.789c0.041,0.135,0.181,0.458,0.592,0.554
	l13.024,3.024C1240.297,231.063,1240.503,230.989,1240.641,230.901z"/><path fill="#FFC9F3" d="M1029.553,87.11c0.852-0.542,1.886-0.723,2.908-0.486c1.349,0.313,2.395,1.291,2.799,2.616l3.893,12.792
	c0.403,1.325,0.079,2.72-0.867,3.732c-0.946,1.01-2.317,1.428-3.665,1.115l-13.024-3.024c-1.35-0.313-2.396-1.292-2.799-2.617
	c-0.403-1.325-0.079-2.72,0.867-3.731l9.131-9.767C1029.026,87.494,1029.281,87.284,1029.553,87.11z M1035.916,103.837
	c0.075-0.048,0.13-0.1,0.164-0.136c0.096-0.103,0.306-0.386,0.183-0.79l-3.893-12.791c-0.123-0.404-0.455-0.522-0.592-0.554
	c-0.136-0.032-0.485-0.073-0.775,0.236l-9.131,9.767c-0.289,0.309-0.224,0.655-0.183,0.789c0.041,0.135,0.181,0.458,0.592,0.554
	l13.024,3.024C1035.572,103.999,1035.778,103.925,1035.916,103.837z"/><path fill="#FFC9F3" d="M680.864,143.64c-0.484-0.886-0.597-1.93-0.293-2.934c0.402-1.325,1.447-2.305,2.796-2.62l13.021-3.038
	c1.349-0.315,2.72,0.101,3.667,1.112c0.946,1.011,1.272,2.406,0.87,3.731l-3.88,12.795c-0.402,1.326-1.447,2.305-2.796,2.619
	c-1.349,0.314-2.719-0.101-3.666-1.112l-9.141-9.757C681.212,144.191,681.019,143.924,680.864,143.64z M697.974,138.399
	c-0.043-0.078-0.091-0.137-0.125-0.173c-0.096-0.103-0.365-0.331-0.776-0.235l-13.021,3.037c-0.411,0.096-0.551,0.42-0.592,0.554
	c-0.041,0.134-0.105,0.479,0.184,0.789l9.141,9.758c0.289,0.309,0.639,0.267,0.775,0.235c0.137-0.032,0.469-0.15,0.592-0.554
	l3.88-12.795C698.113,138.753,698.053,138.542,697.974,138.399z"/><path fill="#FFC9F3" d="M452.752,123.694c0-1.01,0.401-1.98,1.149-2.715c0.988-0.97,2.375-1.329,3.709-0.959l12.884,3.576
	c1.335,0.37,2.338,1.392,2.685,2.733c0.345,1.34-0.037,2.721-1.025,3.691l-9.538,9.37c-0.988,0.971-2.375,1.329-3.71,0.959
	c-1.334-0.37-2.338-1.392-2.684-2.733l-3.346-12.945C452.793,124.344,452.752,124.017,452.752,123.694z M470.281,127.295
	c0-0.089-0.014-0.163-0.026-0.211c-0.035-0.136-0.161-0.466-0.568-0.578l-12.884-3.576c-0.407-0.113-0.685,0.104-0.785,0.203
	c-0.1,0.098-0.322,0.37-0.217,0.781l3.346,12.946c0.106,0.409,0.432,0.541,0.568,0.578c0.136,0.038,0.483,0.093,0.785-0.202
	l9.538-9.37C470.233,127.673,470.281,127.459,470.281,127.295z"/><path fill="#FFC9F3" d="M158.645,612.493c0.619-0.798,1.53-1.319,2.572-1.441c1.375-0.161,2.691,0.405,3.519,1.516l7.988,10.722
	c0.828,1.111,0.994,2.533,0.446,3.805c-0.549,1.271-1.697,2.127-3.072,2.288l-13.28,1.557c-1.376,0.162-2.691-0.406-3.519-1.516
	c-0.827-1.111-0.994-2.533-0.446-3.805l5.291-12.279C158.279,613.033,158.447,612.749,158.645,612.493z M170.288,626.083
	c0.055-0.07,0.089-0.138,0.108-0.183c0.056-0.129,0.158-0.466-0.095-0.805l-7.988-10.722c-0.253-0.339-0.605-0.337-0.745-0.321
	c-0.139,0.016-0.481,0.095-0.649,0.484l-5.292,12.279c-0.167,0.388,0.01,0.692,0.094,0.805c0.084,0.113,0.325,0.37,0.744,0.321
	l13.28-1.557C170.019,626.352,170.187,626.213,170.288,626.083z"/><circle cx="100.076" cy="571.232" r="8.374" fill="#C4CFFB"/><path fill="#C4CFFB" d="M566.419,126.673c0-4.625,3.749-8.374,8.374-8.374c4.625,0,8.374,3.749,8.374,8.374
	s-3.749,8.374-8.374,8.374C570.168,135.046,566.419,131.297,566.419,126.673z"/><path fill="#FFC9F3" d="M219.658,375.076c0-4.625,3.749-8.374,8.374-8.374s8.374,3.749,8.374,8.374c0,4.625-3.749,8.374-8.374,8.374
	S219.658,379.7,219.658,375.076z"/><path fill="#FFC9F3" d="M1218.003,119.877c0-4.625,3.749-8.374,8.374-8.374s8.374,3.749,8.374,8.374
	c0,4.625-3.749,8.374-8.374,8.374S1218.003,124.501,1218.003,119.877z"/><path fill="#C4CFFB" d="M1261.404,380.182c0-4.625,3.749-8.374,8.374-8.374c4.625,0,8.374,3.749,8.374,8.374
	c0,4.625-3.749,8.374-8.374,8.374C1265.153,388.556,1261.404,384.807,1261.404,380.182z"/><path fill="#FFC9F3" d="M1192.003,701.897c0-4.625,3.749-8.374,8.374-8.374s8.374,3.749,8.374,8.374
	c0,4.625-3.749,8.374-8.374,8.374S1192.003,706.521,1192.003,701.897z"/></svg>